<?xml version="1.0" encoding="utf-8"?><svg viewBox="0 0 1920 744.03" xmlns="http://www.w3.org/2000/svg" xmlns:xlink="http://www.w3.org/1999/xlink"><style>:root>svg{display:none}:root>svg:target{display:block}</style><svg viewBox="0 0 10 5" id="angle-down" xmlns="http://www.w3.org/2000/svg"><path data-name="angle down" d="M1396.98 620a.728.728 0 0 1-.49-.179l-4.32-3.772a.567.567 0 0 1 0-.869.787.787 0 0 1 1 0l3.81 3.337 3.82-3.336a.771.771 0 0 1 .99 0 .553.553 0 0 1 0 .868l-4.31 3.772a.767.767 0 0 1-.5.179Zm0 0" transform="translate(-1392 -615)" style="fill:#8d8d8d;fill-rule:evenodd"/></svg><svg fill="#8d8d8d" viewBox="-12 0 32 32" id="angle-left" xmlns="http://www.w3.org/2000/svg"><path d="M7.28 23.28c-.2 0-.44-.08-.6-.24L.24 16.6c-.32-.32-.32-.84 0-1.2l6.44-6.44c.32-.32.84-.32 1.2 0 .32.32.32.84 0 1.2L2.08 16l5.84 5.84c.32.32.32.84 0 1.2-.16.16-.44.24-.64.24z"/></svg><svg fill="#8d8d8d" viewBox="-12 0 32 32" id="angle-right" xmlns="http://www.w3.org/2000/svg"><path d="M.88 23.28c-.2 0-.44-.08-.6-.24-.32-.32-.32-.84 0-1.2L6.04 16l-5.8-5.84c-.32-.32-.32-.84 0-1.2.32-.32.84-.32 1.2 0l6.44 6.44c.16.16.24.36.24.6s-.08.44-.24.6l-6.4 6.44c-.2.16-.4.24-.6.24z"/></svg><svg viewBox="0 0 25 25" id="angle-right1" xmlns="http://www.w3.org/2000/svg"><path style="stroke:none;fill-rule:nonzero;fill:#8d8d8d;fill-opacity:1" d="M11.797 18.188a.689.689 0 0 1-.469-.188c-.25-.25-.25-.656 0-.938l4.563-4.562-4.563-4.563c-.25-.25-.25-.656 0-.937.25-.25.656-.25.938 0l5.03 5.031a.636.636 0 0 1 .188.469.636.636 0 0 1-.187.469L12.266 18a.689.689 0 0 1-.47.188Zm-3.719 0A.689.689 0 0 1 7.61 18c-.25-.25-.25-.656 0-.938l4.563-4.562-4.563-4.563c-.25-.25-.25-.656 0-.937.25-.25.657-.25.938 0l5.031 5.031a.636.636 0 0 1 .188.469.636.636 0 0 1-.188.469L8.547 18a.689.689 0 0 1-.469.188Zm0 0"/></svg><svg viewBox="0 0 10 8" id="arrow" xmlns="http://www.w3.org/2000/svg"><path d="m1310.84 6130.62-3.61-3.47a.582.582 0 0 0-.78 0l-.32.32a.485.485 0 0 0-.16.37.507.507 0 0 0 .16.38l2.1 2.03h-6.69a.519.519 0 0 0-.54.51v.45a.544.544 0 0 0 .54.54h6.72l-2.13 2.04a.508.508 0 0 0 0 .74l.32.32a.61.61 0 0 0 .39.15.57.57 0 0 0 .39-.16l3.61-3.47a.523.523 0 0 0 .16-.37.546.546 0 0 0-.16-.38" transform="translate(-1301 -6127)" style="fill:#29282d;fill-rule:evenodd"/></svg><svg viewBox="0 0 126 53" id="blog-decor" xmlns="http://www.w3.org/2000/svg"><path d="M1568.52 5709.26a1.74 1.74 0 1 1 1.74 1.74 1.741 1.741 0 0 1-1.74-1.74Zm-13.71 0a1.74 1.74 0 1 1 1.74 1.74 1.741 1.741 0 0 1-1.74-1.74Zm-13.49 0a1.74 1.74 0 1 1 1.74 1.74 1.741 1.741 0 0 1-1.74-1.74Zm-13.71 0a1.74 1.74 0 1 1 1.74 1.74 1.741 1.741 0 0 1-1.74-1.74Zm-13.5 0a1.745 1.745 0 1 1 1.74 1.74 1.741 1.741 0 0 1-1.74-1.74Zm-13.71 0a1.745 1.745 0 1 1 1.74 1.74 1.741 1.741 0 0 1-1.74-1.74Zm-13.49 0a1.74 1.74 0 1 1 1.74 1.74 1.741 1.741 0 0 1-1.74-1.74Zm-13.71 0a1.74 1.74 0 1 1 1.74 1.74 1.741 1.741 0 0 1-1.74-1.74Zm-13.49 0a1.74 1.74 0 1 1 1.74 1.74 1.741 1.741 0 0 1-1.74-1.74Zm-13.71 0a1.74 1.74 0 1 1 1.74 1.74 1.741 1.741 0 0 1-1.74-1.74Zm122.52-16.51a1.74 1.74 0 1 1 1.74 1.74 1.733 1.733 0 0 1-1.74-1.74Zm-13.71 0a1.74 1.74 0 1 1 1.74 1.74 1.733 1.733 0 0 1-1.74-1.74Zm-13.49 0a1.74 1.74 0 1 1 1.74 1.74 1.733 1.733 0 0 1-1.74-1.74Zm-13.71 0a1.74 1.74 0 1 1 1.74 1.74 1.733 1.733 0 0 1-1.74-1.74Zm-13.5 0a1.745 1.745 0 1 1 1.74 1.74 1.733 1.733 0 0 1-1.74-1.74Zm-13.71 0a1.745 1.745 0 1 1 1.74 1.74 1.733 1.733 0 0 1-1.74-1.74Zm-13.49 0a1.74 1.74 0 1 1 1.74 1.74 1.733 1.733 0 0 1-1.74-1.74Zm-13.71 0a1.74 1.74 0 1 1 1.74 1.74 1.733 1.733 0 0 1-1.74-1.74Zm-13.49 0a1.74 1.74 0 1 1 1.74 1.74 1.733 1.733 0 0 1-1.74-1.74Zm-13.71 0a1.74 1.74 0 1 1 1.74 1.74 1.733 1.733 0 0 1-1.74-1.74Zm122.52-16.5a1.74 1.74 0 1 1 1.74 1.73 1.741 1.741 0 0 1-1.74-1.73Zm-13.71 0a1.74 1.74 0 1 1 1.74 1.73 1.741 1.741 0 0 1-1.74-1.73Zm-13.49 0a1.74 1.74 0 1 1 1.74 1.73 1.741 1.741 0 0 1-1.74-1.73Zm-13.71 0a1.74 1.74 0 1 1 1.74 1.73 1.741 1.741 0 0 1-1.74-1.73Zm-13.5 0a1.745 1.745 0 1 1 1.74 1.73 1.741 1.741 0 0 1-1.74-1.73Zm-13.71 0a1.745 1.745 0 1 1 1.74 1.73 1.741 1.741 0 0 1-1.74-1.73Zm-13.49 0a1.74 1.74 0 1 1 1.74 1.73 1.741 1.741 0 0 1-1.74-1.73Zm-13.71 0a1.74 1.74 0 1 1 1.74 1.73 1.741 1.741 0 0 1-1.74-1.73Zm-13.49 0a1.74 1.74 0 1 1 1.74 1.73 1.741 1.741 0 0 1-1.74-1.73Zm-13.71 0a1.74 1.74 0 1 1 1.74 1.73 1.741 1.741 0 0 1-1.74-1.73Zm122.52-16.51a1.74 1.74 0 1 1 1.74 1.74 1.741 1.741 0 0 1-1.74-1.74Zm-13.71 0a1.74 1.74 0 1 1 1.74 1.74 1.741 1.741 0 0 1-1.74-1.74Zm-13.49 0a1.74 1.74 0 1 1 1.74 1.74 1.741 1.741 0 0 1-1.74-1.74Zm-13.71 0a1.74 1.74 0 1 1 1.74 1.74 1.741 1.741 0 0 1-1.74-1.74Zm-13.5 0a1.745 1.745 0 1 1 1.74 1.74 1.741 1.741 0 0 1-1.74-1.74Zm-13.71 0a1.745 1.745 0 1 1 1.74 1.74 1.741 1.741 0 0 1-1.74-1.74Zm-13.49 0a1.74 1.74 0 1 1 1.74 1.74 1.741 1.741 0 0 1-1.74-1.74Zm-13.71 0a1.74 1.74 0 1 1 1.74 1.74 1.741 1.741 0 0 1-1.74-1.74Zm-13.49 0a1.74 1.74 0 1 1 1.74 1.74 1.741 1.741 0 0 1-1.74-1.74Zm-13.71 0a1.74 1.74 0 1 1 1.74 1.74 1.741 1.741 0 0 1-1.74-1.74Z" transform="translate(-1446 -5658)" style="fill:#fe3e57;fill-rule:evenodd"/></svg><svg viewBox="0 0 16 16" id="calendar" xmlns="http://www.w3.org/2000/svg"><path d="M1317.12 1641.25h-.75V1640h-1.25v1.25h-8.24V1640h-1.26v1.25h-.75a1.874 1.874 0 0 0-1.87 1.87v11a1.876 1.876 0 0 0 1.87 1.88h12.25a1.878 1.878 0 0 0 1.88-1.88v-11a1.876 1.876 0 0 0-1.88-1.87Zm-12.25 1.25h.75v1.25h1.26v-1.25h8.24v1.25h1.25v-1.25h.75a.625.625 0 0 1 .63.62v1.5h-13.5v-1.5a.623.623 0 0 1 .62-.62Zm12.25 12.25h-12.25a.625.625 0 0 1-.62-.63v-8.25h13.5v8.25a.627.627 0 0 1-.63.63Zm-11.75-7.56h1.25v1.25h-1.25v-1.25Zm2.5 0h1.25v1.25h-1.25v-1.25Zm2.5 0h1.25v1.25h-1.25v-1.25Zm2.5 0h1.25v1.25h-1.25v-1.25Zm2.5 0h1.25v1.25h-1.25v-1.25Zm-10 2.5h1.25v1.25h-1.25v-1.25Zm2.5 0h1.25v1.25h-1.25v-1.25Zm2.5 0h1.25v1.25h-1.25v-1.25Zm2.5 0h1.25v1.25h-1.25v-1.25Zm-7.5 2.5h1.25v1.25h-1.25v-1.25Zm2.5 0h1.25v1.25h-1.25v-1.25Zm2.5 0h1.25v1.25h-1.25v-1.25Zm2.5 0h1.25v1.25h-1.25v-1.25Zm2.5-2.5h1.25v1.25h-1.25v-1.25Z" transform="translate(-1303 -1640)" style="fill:#fe3e57;fill-rule:evenodd"/></svg><svg viewBox="0 0 22 20" id="cart" xmlns="http://www.w3.org/2000/svg"><path d="M1527.44 65a2.724 2.724 0 1 1 2.74-2.724 2.738 2.738 0 0 1-2.74 2.724Zm0-3.814a1.09 1.09 0 1 0 1.09 1.09 1.094 1.094 0 0 0-1.09-1.093Zm1.75-2.806h-12.81a.823.823 0 0 1-.8-.628l-2.68-11.115h-2.06a.817.817 0 1 1 0-1.634h2.71a.824.824 0 0 1 .8.627l.74 3.078h16.1a.818.818 0 0 1 .8 1.014l-2 8.038a.822.822 0 0 1-.8.617Zm-12.16-1.635h11.52l1.59-6.4h-14.65Zm.45 8.255a2.724 2.724 0 1 1 2.74-2.724 2.738 2.738 0 0 1-2.74 2.724Zm0-3.814a1.09 1.09 0 1 0 1.09 1.09 1.094 1.094 0 0 0-1.09-1.093Z" transform="translate(-1510 -45)" style="fill:#29282d;fill-rule:evenodd"/></svg><svg viewBox="0 0 16 16" id="comment" xmlns="http://www.w3.org/2000/svg"><path d="M607.375 1097h-14.75a.624.624 0 0 0-.625.62V1110a.624.624 0 0 0 .625.62h5.53l1.317 2.09a.626.626 0 0 0 1.056 0l1.316-2.09h5.531a.624.624 0 0 0 .625-.62v-12.38a.624.624 0 0 0-.625-.62Zm-.625 12.37h-5.25a.616.616 0 0 0-.529.3l-.971 1.53-.972-1.53a.613.613 0 0 0-.528-.3h-5.25v-11.12h13.5v11.12Zm-7.531-5.56a.781.781 0 1 1 .781.78.781.781 0 0 1-.781-.78Zm-3.125 0a.781.781 0 1 1 .781.78.781.781 0 0 1-.781-.78Zm6.25 0a.781.781 0 1 1 .781.78.781.781 0 0 1-.781-.78Z" transform="translate(-592 -1097)" style="fill:#fe3e57;fill-rule:evenodd"/></svg><svg data-name="Группа 1" viewBox="0 0 1627 369" id="g" xmlns="http://www.w3.org/2000/svg"><defs><filter id="aaa" x="1685" y="6174" width="66" height="66" filterUnits="userSpaceOnUse"><feOffset result="offset" dy="3" in="SourceAlpha"/><feGaussianBlur result="blur" stdDeviation="3.162"/><feFlood result="flood" flood-color="#fe3e57" flood-opacity=".5"/><feComposite result="composite" operator="in" in2="blur"/><feBlend result="blend" in="SourceGraphic"/></filter></defs><path d="M1717.5 6180a23.5 23.5 0 1 0 23.5 23.5 23.5 23.5 0 0 0-23.5-23.5Zm0 42.19a18.7 18.7 0 1 1 18.7-18.69 18.689 18.689 0 0 1-18.7 18.69Zm.02-24.3a5.605 5.605 0 1 0 5.59 5.63 5.614 5.614 0 0 0-5.59-5.63Z" transform="translate(-124 -5871)" style="fill-rule:evenodd;fill:#fe3e57;filter:url(#aaa)"/><path d="M205.4 5899.77a2.155 2.155 0 1 0 2.161 2.15 2.154 2.154 0 0 0-2.161-2.15Zm-14.406 0a2.155 2.155 0 1 0 2.16 2.15 2.155 2.155 0 0 0-2.162-2.15Zm0-14.39a2.16 2.16 0 1 0 2.16 2.16 2.163 2.163 0 0 0-2.162-2.16Zm-14.407 0a2.16 2.16 0 1 0 0 4.32 2.16 2.16 0 1 0-.002-4.32Zm21.61 21.58a2.155 2.155 0 1 0 2.16 2.16 2.156 2.156 0 0 0-2.157-2.16Zm14.407 0a2.155 2.155 0 1 0 2.161 2.16 2.157 2.157 0 0 0-2.165-2.16Zm-14.404-14.39a2.16 2.16 0 1 0 2.16 2.16 2.163 2.163 0 0 0-2.16-2.16Zm-14.407 0a2.16 2.16 0 1 0 2.161 2.16 2.163 2.163 0 0 0-2.166-2.16Zm36.017 35.96a2.16 2.16 0 1 0 2.16 2.16 2.162 2.162 0 0 0-2.165-2.16Zm-14.407 0a2.16 2.16 0 1 0 2.161 2.16 2.162 2.162 0 0 0-2.164-2.16Zm-14.406 0a2.16 2.16 0 1 0 2.16 2.16 2.163 2.163 0 0 0-2.165-2.16Zm28.813-14.38a2.155 2.155 0 1 0 2.16 2.16 2.162 2.162 0 0 0-2.165-2.16Zm-14.407 0a2.155 2.155 0 1 0 2.161 2.16 2.162 2.162 0 0 0-2.164-2.16Zm-14.406 0a2.155 2.155 0 1 0 2.16 2.16 2.163 2.163 0 0 0-2.165-2.16Zm-14.407 0a2.155 2.155 0 1 0 0 4.31 2.155 2.155 0 1 0-.005-4.31Zm21.61 21.58a2.155 2.155 0 1 0 2.16 2.15 2.154 2.154 0 0 0-2.16-2.15Zm14.407 0a2.155 2.155 0 1 0 2.161 2.15 2.154 2.154 0 0 0-2.168-2.15Zm-14.407-14.39a2.16 2.16 0 1 0 2.16 2.16 2.163 2.163 0 0 0-2.16-2.16Zm16.567 2.16a2.161 2.161 0 1 0-2.161 2.16 2.163 2.163 0 0 0 2.156-2.16Zm12.247-2.16a2.16 2.16 0 1 0 2.16 2.16 2.163 2.163 0 0 0-2.165-2.16Zm-43.221 0a2.16 2.16 0 1 0 2.161 2.16 2.163 2.163 0 0 0-2.166-2.16Zm7.2 35.96a2.16 2.16 0 1 0 2.16 2.16 2.163 2.163 0 0 0-2.161-2.16Zm14.406-14.38a2.155 2.155 0 1 0 2.161 2.15 2.154 2.154 0 0 0-2.16-2.15Zm-14.406 0a2.155 2.155 0 1 0 2.16 2.15 2.155 2.155 0 0 0-2.161-2.15Zm-14.407 0a2.155 2.155 0 1 0 0 4.31 2.155 2.155 0 1 0-.001-4.31Zm21.61 7.19a2.155 2.155 0 1 0 2.16 2.16 2.156 2.156 0 0 0-2.156-2.16Zm-14.407 0a2.155 2.155 0 1 0 2.161 2.16 2.157 2.157 0 0 0-2.162-2.16Zm-7.2 21.57a2.16 2.16 0 1 0 0 4.32 2.16 2.16 0 1 0-.004-4.32Zm0-96.37a2.155 2.155 0 1 0-2.162-2.15 2.154 2.154 0 0 0 2.157 2.15Zm-7.2 2.88a2.155 2.155 0 1 0 2.162 2.16 2.163 2.163 0 0 0-2.171-2.16Zm14.408 4.31a2.155 2.155 0 1 0-2.163-2.15 2.155 2.155 0 0 0 2.154 2.15Zm-7.2 21.58a2.155 2.155 0 1 0-2.162-2.16 2.163 2.163 0 0 0 2.149 2.16Zm-7.2 2.88a2.155 2.155 0 1 0 2.162 2.16 2.156 2.156 0 0 0-2.179-2.16Zm14.408 4.31a2.155 2.155 0 1 0-2.163-2.15 2.155 2.155 0 0 0 2.146 2.15Zm-14.408-18.7a2.16 2.16 0 1 0 2.162 2.16 2.163 2.163 0 0 0-2.179-2.16Zm-13.565.17a2.14 2.14 0 0 0-.84-.17 2.17 2.17 0 0 0-1.991 1.32 2.16 2.16 0 0 0 1.991 3 2.16 2.16 0 0 0 2.16-2.16 2.168 2.168 0 0 0-1.337-1.99Zm20.769 40.11a2.16 2.16 0 1 0-2.162-2.16 2.163 2.163 0 0 0 2.145 2.16Zm-7.2 2.88a2.155 2.155 0 1 0 2.162 2.15 2.154 2.154 0 0 0-2.183-2.15Zm14.408 4.31a2.155 2.155 0 1 0-2.163-2.16 2.163 2.163 0 0 0 2.142 2.16Zm-14.408-18.7a2.16 2.16 0 1 0 2.162 2.16 2.163 2.163 0 0 0-2.183-2.16Zm-13.565.17a2.14 2.14 0 0 0-.84-.17 2.16 2.16 0 1 0 0 4.32 2.14 2.14 0 0 0 .84-.17 2.16 2.16 0 0 0-.021-3.98Zm20.769 40.11a2.16 2.16 0 1 0-2.162-2.16 2.163 2.163 0 0 0 2.141 2.16Zm-7.2 2.87a2.16 2.16 0 1 0 2.162 2.16 2.163 2.163 0 0 0-2.187-2.16Zm14.408 0a2.16 2.16 0 1 0 2.16 2.16 2.163 2.163 0 0 0-2.185-2.16Zm-14.408-14.38a2.155 2.155 0 1 0 2.162 2.16 2.156 2.156 0 0 0-2.187-2.16Zm-13.565.17a2.14 2.14 0 0 0-.84-.17 2.155 2.155 0 0 0-1.991 1.32 2.1 2.1 0 0 0-.17.84 2.147 2.147 0 0 0 2.161 2.15 2.154 2.154 0 0 0 .815-4.14Zm6.364-50.51a2.155 2.155 0 1 0 0 4.31 2.155 2.155 0 1 0-.025-4.31Zm-14.409 0a2.155 2.155 0 1 0 2.162 2.15 2.154 2.154 0 0 0-2.187-2.15Zm14.409-14.39a2.16 2.16 0 1 0 0 4.32 2.166 2.166 0 0 0 1.988-1.32 2.16 2.16 0 0 0-2.013-3Zm-21.613 21.58a2.155 2.155 0 1 0 2.162 2.16 2.155 2.155 0 0 0-2.187-2.16Zm14.409 0a2.155 2.155 0 1 0 2.16 2.16 2.156 2.156 0 0 0-2.185-2.16Zm7.2 21.57a2.16 2.16 0 1 0 0 4.32 2.16 2.16 0 0 0-.021-4.32Zm-14.409 0a2.16 2.16 0 1 0 2.162 2.16 2.162 2.162 0 0 0-2.183-2.16Zm-14.406 0a2.16 2.16 0 1 0 2.16 2.16 2.163 2.163 0 0 0-2.181-2.16Zm28.815-14.38a2.157 2.157 0 0 0-2.161 2.16 2.191 2.191 0 0 0 .169.84 2.162 2.162 0 0 0 1.992 1.31 2.155 2.155 0 1 0-.021-4.31Zm-14.409 0a2.155 2.155 0 1 0 2.162 2.16 2.162 2.162 0 0 0-2.183-2.16Zm-14.406 0a2.155 2.155 0 1 0 2.16 2.16 2.163 2.163 0 0 0-2.181-2.16Zm7.2 21.58a2.155 2.155 0 1 0 2.162 2.15 2.153 2.153 0 0 0-2.181-2.15Zm14.409 0a2.155 2.155 0 1 0 2.16 2.15 2.154 2.154 0 0 0-2.179-2.15Zm-14.409-14.39a2.16 2.16 0 1 0 2.162 2.16 2.162 2.162 0 0 0-2.181-2.16Zm-14.406 0a2.16 2.16 0 1 0 2.162 2.16 2.162 2.162 0 0 0-2.181-2.16Zm36.019 35.96a2.16 2.16 0 1 0 0 4.32 2.166 2.166 0 0 0 1.988-1.32 2.16 2.16 0 0 0-2.007-3Zm0-14.38a2.162 2.162 0 0 0-1.992 1.31 2.191 2.191 0 0 0-.169.84 2.117 2.117 0 0 0 .169.84 2.155 2.155 0 0 0 1.992 1.32 2.151 2.151 0 0 0 1.988-1.32 2.1 2.1 0 0 0 .171-.84 2.15 2.15 0 0 0-2.178-2.15Zm-14.409 0a2.155 2.155 0 1 0 2.162 2.15 2.154 2.154 0 0 0-2.181-2.15Z" transform="translate(-124 -5871)" style="fill:#34c3ff;fill-rule:evenodd"/></svg><svg viewBox="0 0 20 20" id="heart" xmlns="http://www.w3.org/2000/svg"><path d="M1484.78 49.589a6.683 6.683 0 0 0-4.17-4.371c-1.71-.595-3.75 0-5.58 1.611-1.83-1.569-3.88-2.122-5.58-1.569a6.884 6.884 0 0 0-4.17 4.371c-.47 1.57-.51 4.117 1.95 7.215 1.11 1.4 2.82 3.4 4.22 4.965 2.68 3.014 3.11 3.183 3.49 3.183h.17c.39 0 .77-.168 3.45-3.224a224.86 224.86 0 0 0 4.22-4.966c2.47-3.098 2.47-5.645 2-7.215Zm-3.28 6.2c-1.96 2.462-5.32 6.324-6.47 7.385-1.15-1.061-4.52-4.924-6.48-7.385-1.61-1.994-2.21-3.947-1.7-5.687a4.986 4.986 0 0 1 3.11-3.225c1.23-.467 2.9.169 4.43 1.655a.84.84 0 0 0 1.06.126.447.447 0 0 0 .22-.17c1.53-1.443 3.19-2.079 4.42-1.655a5.168 5.168 0 0 1 3.11 3.268c.51 1.699-.08 3.689-1.7 5.683Z" transform="translate(-1465.03 -45)" style="fill:#29282d;fill-rule:evenodd"/></svg><svg viewBox="0 0 16 16" id="home-icon" xmlns="http://www.w3.org/2000/svg"><path d="m893 310-7.771 6.858a.665.665 0 0 0-.064.925.639.639 0 0 0 .91.065l.286-.253v6.44a1.95 1.95 0 0 0 1.933 1.965h3.606v-5.274a1.138 1.138 0 0 1 1.128-1.146 1.138 1.138 0 0 1 1.128 1.146V326h3.544a1.95 1.95 0 0 0 1.934-1.965v-6.44l.286.253a.637.637 0 0 0 .909-.065.663.663 0 0 0-.064-.925Zm5.35 14.035a.65.65 0 0 1-.645.655h-2.256v-3.964a2.437 2.437 0 0 0-2.417-2.456 2.437 2.437 0 0 0-2.417 2.456v3.964h-2.32a.65.65 0 0 1-.645-.655v-7.578l5.35-4.722 5.35 4.722v7.578Z" transform="translate(-885 -310)" style="fill:#727272;fill-rule:evenodd"/></svg><svg viewBox="0 0 65 52" id="info-after" xmlns="http://www.w3.org/2000/svg"><path d="M1505.75 1203a1.735 1.735 0 1 1-1.75 1.73 1.741 1.741 0 0 1 1.75-1.73Zm12.3 0a1.735 1.735 0 1 1-1.77 1.73 1.75 1.75 0 0 1 1.77-1.73Zm12.29 0a1.735 1.735 0 1 1-1.75 1.73 1.741 1.741 0 0 1 1.75-1.73Zm12.32 0a1.735 1.735 0 1 1-1.75 1.73 1.748 1.748 0 0 1 1.75-1.73Zm12.29 0a1.735 1.735 0 1 1-1.76 1.73 1.752 1.752 0 0 1 1.76-1.73Zm12.3 0a1.735 1.735 0 1 1-1.75 1.73 1.741 1.741 0 0 1 1.75-1.73Zm-61.5 12.12a1.735 1.735 0 1 1-1.75 1.74 1.743 1.743 0 0 1 1.75-1.74Zm12.3 0a1.735 1.735 0 1 1-1.77 1.74 1.752 1.752 0 0 1 1.77-1.74Zm12.29 0a1.735 1.735 0 1 1-1.75 1.74 1.743 1.743 0 0 1 1.75-1.74Zm12.32 0a1.735 1.735 0 1 1-1.75 1.74 1.75 1.75 0 0 1 1.75-1.74Zm12.29 0a1.735 1.735 0 1 1-1.76 1.74 1.754 1.754 0 0 1 1.76-1.74Zm12.3 0a1.735 1.735 0 1 1-1.75 1.74 1.743 1.743 0 0 1 1.75-1.74Zm-61.5 12.16a1.72 1.72 0 1 1-1.75 1.72 1.733 1.733 0 0 1 1.75-1.72Zm12.3 0a1.721 1.721 0 1 1-1.77 1.72 1.742 1.742 0 0 1 1.77-1.72Zm12.29 0a1.72 1.72 0 1 1-1.75 1.72 1.733 1.733 0 0 1 1.75-1.72Zm12.32 0a1.72 1.72 0 1 1-1.75 1.72 1.739 1.739 0 0 1 1.75-1.72Zm12.29 0a1.72 1.72 0 1 1-1.76 1.72 1.744 1.744 0 0 1 1.76-1.72Zm12.3 0a1.72 1.72 0 1 1-1.75 1.72 1.733 1.733 0 0 1 1.75-1.72Zm-61.5 12.13a1.73 1.73 0 1 1-1.75 1.73 1.735 1.735 0 0 1 1.75-1.73Zm12.3 0a1.73 1.73 0 1 1-1.77 1.73 1.744 1.744 0 0 1 1.77-1.73Zm12.29 0a1.73 1.73 0 1 1-1.75 1.73 1.735 1.735 0 0 1 1.75-1.73Zm12.32 0a1.73 1.73 0 1 1-1.75 1.73 1.741 1.741 0 0 1 1.75-1.73Zm12.29 0a1.73 1.73 0 1 1-1.76 1.73 1.746 1.746 0 0 1 1.76-1.73Zm12.3 0a1.73 1.73 0 1 1-1.75 1.73 1.735 1.735 0 0 1 1.75-1.73Zm-61.5 12.12a1.735 1.735 0 1 1-1.75 1.74 1.743 1.743 0 0 1 1.75-1.74Zm12.3 0a1.735 1.735 0 1 1-1.77 1.74 1.752 1.752 0 0 1 1.77-1.74Zm12.29 0a1.735 1.735 0 1 1-1.75 1.74 1.743 1.743 0 0 1 1.75-1.74Zm12.32 0a1.735 1.735 0 1 1-1.75 1.74 1.75 1.75 0 0 1 1.75-1.74Zm12.29 0a1.735 1.735 0 1 1-1.76 1.74 1.754 1.754 0 0 1 1.76-1.74Zm12.3 0a1.735 1.735 0 1 1-1.75 1.74 1.743 1.743 0 0 1 1.75-1.74Z" transform="translate(-1504 -1203)" style="fill:#fe3e57;fill-rule:evenodd"/></svg><svg viewBox="0 0 120 121" id="info-before" xmlns="http://www.w3.org/2000/svg"><path d="M391.989 1011.99c-.375 0-.748 0-1.121-.01a.582.582 0 0 1-.576-.6.592.592 0 0 1 .6-.58c1.348.03 2.718 0 4.067-.06a.577.577 0 0 1 .615.56.6.6 0 0 1-.557.62c-1.004.05-2.017.07-3.028.07Zm-5.21-.22a.094.094 0 0 1-.051-.01 63.135 63.135 0 0 1-4.116-.5.592.592 0 0 1 .182-1.17c1.333.21 2.691.38 4.036.5a.582.582 0 0 1 .533.64.594.594 0 0 1-.584.54Zm12.3-.2a.588.588 0 0 1-.583-.52.6.6 0 0 1 .514-.66c1.343-.16 2.694-.37 4.018-.62a.59.59 0 0 1 .219 1.16c-1.35.26-2.729.47-4.1.64h-.069Zm-20.406-1.09a.583.583 0 0 1-.131-.01 55.33 55.33 0 0 1-4.008-1.08.59.59 0 0 1 .341-1.13c1.29.4 2.612.75 3.929 1.06a.588.588 0 0 1-.133 1.16Zm28.468-.45a.592.592 0 0 1-.566-.44.585.585 0 0 1 .418-.72c1.3-.35 2.614-.75 3.893-1.18a.581.581 0 0 1 .745.37.6.6 0 0 1-.368.75c-1.305.44-2.641.85-3.972 1.2a.772.772 0 0 1-.152.02Zm-36.328-1.95a.514.514 0 0 1-.209-.04 59.268 59.268 0 0 1-3.826-1.63.591.591 0 0 1-.286-.78.581.581 0 0 1 .78-.29c1.227.57 2.488 1.11 3.75 1.59a.6.6 0 0 1-.211 1.15Zm44.1-.7a.594.594 0 0 1-.227-1.14c1.243-.53 2.484-1.1 3.69-1.71a.581.581 0 0 1 .788.26.587.587 0 0 1-.26.79c-1.231.63-2.5 1.21-3.765 1.75a.611.611 0 0 1-.231.05Zm-51.552-2.79a.575.575 0 0 1-.282-.07 62.106 62.106 0 0 1-3.564-2.14.6.6 0 0 1-.175-.82.579.579 0 0 1 .812-.18 54.93 54.93 0 0 0 3.493 2.1.6.6 0 0 1 .231.81.592.592 0 0 1-.52.3Zm58.88-.93a.577.577 0 0 1-.5-.29.6.6 0 0 1 .2-.81 54.46 54.46 0 0 0 3.423-2.21.593.593 0 0 1 .667.98 61.68 61.68 0 0 1-3.491 2.25.543.543 0 0 1-.304.08Zm-65.782-3.55a.573.573 0 0 1-.351-.121 60.428 60.428 0 0 1-3.236-2.618.594.594 0 0 1-.062-.834.582.582 0 0 1 .827-.062 59.84 59.84 0 0 0 3.173 2.566.595.595 0 0 1-.356 1.069Zm72.535-1.143a.58.58 0 0 1-.459-.223.6.6 0 0 1 .093-.832 59.242 59.242 0 0 0 3.091-2.663.585.585 0 0 1 .83.037.594.594 0 0 1-.037.836 60.306 60.306 0 0 1-3.153 2.716.586.586 0 0 1-.37.129Zm-78.76-4.259a.581.581 0 0 1-.412-.171c-.98-.976-1.939-2-2.849-3.038a.6.6 0 0 1 .052-.836.585.585 0 0 1 .829.053 60.397 60.397 0 0 0 2.793 2.979.6.6 0 0 1 0 .837.584.584 0 0 1-.418.176Zm84.814-1.33a.581.581 0 0 1-.405-.163.6.6 0 0 1-.021-.837 57.825 57.825 0 0 0 2.7-3.066.585.585 0 0 1 .826-.078.6.6 0 0 1 .077.834 61.476 61.476 0 0 1-2.754 3.127.584.584 0 0 1-.428.183ZM344.8 988.5a.586.586 0 0 1-.467-.232 63.665 63.665 0 0 1-2.407-3.4.6.6 0 0 1 .165-.821.584.584 0 0 1 .813.166 60.314 60.314 0 0 0 2.361 3.337.593.593 0 0 1-.109.829.576.576 0 0 1-.356.121Zm95.48-1.5a.585.585 0 0 1-.341-.111.6.6 0 0 1-.135-.826 59.871 59.871 0 0 0 2.258-3.412.584.584 0 0 1 .809-.192.6.6 0 0 1 .19.815 65.322 65.322 0 0 1-2.3 3.479.586.586 0 0 1-.481.247Zm-100.01-5.4a.583.583 0 0 1-.511-.3 61.086 61.086 0 0 1-1.919-3.7.6.6 0 0 1 .275-.79.584.584 0 0 1 .783.278 60.513 60.513 0 0 0 1.882 3.631.593.593 0 0 1-.221.806.582.582 0 0 1-.289.082Zm104.33-1.639a.58.58 0 0 1-.272-.068.594.594 0 0 1-.246-.8 60.338 60.338 0 0 0 1.77-3.694.587.587 0 0 1 .774-.3.6.6 0 0 1 .3.781 60.486 60.486 0 0 1-1.806 3.769.588.588 0 0 1-.52.312Zm-107.875-5.808a.589.589 0 0 1-.546-.374 61.046 61.046 0 0 1-1.393-3.938.594.594 0 0 1 .381-.744.588.588 0 0 1 .738.384c.41 1.3.869 2.6 1.366 3.861a.593.593 0 0 1-.33.768.57.57 0 0 1-.215.043Zm111.19-1.772a.577.577 0 0 1-.2-.036.592.592 0 0 1-.353-.757c.456-1.277.874-2.59 1.243-3.9a.586.586 0 0 1 .724-.408.592.592 0 0 1 .4.73c-.375 1.34-.8 2.679-1.268 3.982a.588.588 0 0 1-.545.389Zm-113.677-6.115a.586.586 0 0 1-.57-.452 60.45 60.45 0 0 1-.838-4.094.592.592 0 0 1 .48-.683.586.586 0 0 1 .677.484c.228 1.345.5 2.7.821 4.014a.592.592 0 0 1-.431.715.56.56 0 0 1-.138.016Zm115.914-1.848a.621.621 0 0 1-.121-.012.592.592 0 0 1-.454-.7c.276-1.333.509-2.691.694-4.038a.583.583 0 0 1 .661-.506.591.591 0 0 1 .5.668 60.641 60.641 0 0 1-.708 4.118.587.587 0 0 1-.571.47Zm-117.292-6.309a.589.589 0 0 1-.584-.532 61.307 61.307 0 0 1-.27-4.172.587.587 0 1 1 1.173-.036c.042 1.359.131 2.735.265 4.09a.591.591 0 0 1-.525.648c-.019.002-.039.002-.058.002Zm118.413-1.888h-.041a.592.592 0 0 1-.546-.631 60.76 60.76 0 0 0 .023-7.851.59.59 0 0 1 .549-.627.581.581 0 0 1 .622.554 61.755 61.755 0 0 1-.022 8.001.588.588 0 0 1-.584.554Zm-118.667-6.382h-.023a.588.588 0 0 1-.564-.613c.051-1.39.149-2.793.294-4.169a.587.587 0 1 1 1.167.124 61.68 61.68 0 0 0-.289 4.089.588.588 0 0 1-.584.569Zm118.294-5.662a.589.589 0 0 1-.581-.514c-.177-1.35-.4-2.71-.671-4.043a.592.592 0 0 1 .458-.7.586.586 0 0 1 .692.462c.275 1.36.5 2.747.684 4.124a.59.59 0 0 1-.5.664.678.678 0 0 1-.082.007Zm-117.43-2.567a.583.583 0 0 1-.578-.694c.239-1.368.529-2.743.861-4.09a.583.583 0 0 1 .711-.43.592.592 0 0 1 .429.717 59.19 59.19 0 0 0-.845 4.009.588.588 0 0 1-.578.488Zm115.794-5.541a.588.588 0 0 1-.565-.434 58.9 58.9 0 0 0-1.22-3.91.6.6 0 0 1 .358-.756.587.587 0 0 1 .749.361c.46 1.312.878 2.654 1.245 3.989a.593.593 0 0 1-.41.728.607.607 0 0 1-.157.022Zm-113.81-2.487a.568.568 0 0 1-.181-.03.592.592 0 0 1-.378-.745c.425-1.319.9-2.643 1.418-3.935a.586.586 0 0 1 .764-.328.594.594 0 0 1 .325.77 59.978 59.978 0 0 0-1.39 3.858.588.588 0 0 1-.558.41Zm111.08-5.31a.59.59 0 0 1-.54-.357 59.478 59.478 0 0 0-1.743-3.7.594.594 0 0 1 .251-.8.585.585 0 0 1 .791.253 59.7 59.7 0 0 1 1.779 3.773.594.594 0 0 1-.306.778.579.579 0 0 1-.232.053ZM338.527 925.9a.584.584 0 0 1-.256-.059.594.594 0 0 1-.271-.791 60.328 60.328 0 0 1 1.944-3.7.586.586 0 0 1 .8-.218.594.594 0 0 1 .216.808 59.549 59.549 0 0 0-1.907 3.625.584.584 0 0 1-.526.335Zm104.231-4.964a.589.589 0 0 1-.5-.284 59.24 59.24 0 0 0-2.235-3.423.6.6 0 0 1 .139-.825.583.583 0 0 1 .818.141 59.153 59.153 0 0 1 2.28 3.49.6.6 0 0 1-.2.814.583.583 0 0 1-.302.084Zm-100.133-2.216a.578.578 0 0 1-.326-.1.594.594 0 0 1-.16-.821 60.702 60.702 0 0 1 2.43-3.39.583.583 0 0 1 .824-.1.6.6 0 0 1 .1.83 59.08 59.08 0 0 0-2.384 3.323.587.587 0 0 1-.484.258Zm95.388-4.536a.586.586 0 0 1-.455-.217 60.741 60.741 0 0 0-2.68-3.083.594.594 0 0 1 .025-.836.585.585 0 0 1 .83.026 61.3 61.3 0 0 1 2.734 3.144.593.593 0 0 1-.083.832.58.58 0 0 1-.371.134Zm-90.35-2a.578.578 0 0 1-.391-.151.594.594 0 0 1-.047-.835 60.527 60.527 0 0 1 2.868-3.02.584.584 0 0 1 .83.01.6.6 0 0 1-.01.836 59.957 59.957 0 0 0-2.812 2.962.586.586 0 0 1-.438.196Zm84.729-4.029a.585.585 0 0 1-.4-.158 59.124 59.124 0 0 0-3.076-2.684.6.6 0 0 1-.088-.832.584.584 0 0 1 .825-.089c1.07.87 2.126 1.791 3.137 2.737a.6.6 0 0 1 .031.836.583.583 0 0 1-.429.188Zm-78.851-1.755a.583.583 0 0 1-.448-.209.594.594 0 0 1 .067-.833c1.05-.9 2.144-1.773 3.251-2.595a.582.582 0 0 1 .82.124.594.594 0 0 1-.123.827 59.309 59.309 0 0 0-3.188 2.545.578.578 0 0 1-.379.141ZM426 902.953a.575.575 0 0 1-.336-.107 59.512 59.512 0 0 0-3.412-2.233.594.594 0 0 1-.2-.812.582.582 0 0 1 .805-.2 59.475 59.475 0 0 1 3.481 2.278.6.6 0 0 1 .144.824.585.585 0 0 1-.482.25Zm-65.855-1.453a.585.585 0 0 1-.5-.275.6.6 0 0 1 .18-.817 61.19 61.19 0 0 1 3.572-2.119.585.585 0 0 1 .8.238.6.6 0 0 1-.235.8 57.51 57.51 0 0 0-3.5 2.077.574.574 0 0 1-.317.096Zm58.816-2.807a.566.566 0 0 1-.267-.065c-1.2-.618-2.442-1.2-3.687-1.737a.593.593 0 0 1-.31-.776.585.585 0 0 1 .77-.313 59.151 59.151 0 0 1 3.761 1.773.594.594 0 0 1 .256.795.587.587 0 0 1-.523.318Zm-51.608-1.138a.587.587 0 0 1-.535-.346.6.6 0 0 1 .291-.784 59.496 59.496 0 0 1 3.826-1.6.584.584 0 0 1 .755.347.593.593 0 0 1-.344.762c-1.262.476-2.523 1-3.75 1.568a.586.586 0 0 1-.243.048Zm44.047-2.1a.583.583 0 0 1-.192-.033 56.446 56.446 0 0 0-3.886-1.2.592.592 0 0 1 .305-1.143 59.93 59.93 0 0 1 3.964 1.227.593.593 0 0 1-.191 1.139Zm-36.366-.8a.592.592 0 0 1-.168-1.159 59.477 59.477 0 0 1 4.014-1.05.592.592 0 0 1 .256 1.155 57.59 57.59 0 0 0-3.935 1.03.607.607 0 0 1-.167.018Zm28.441-1.356a.548.548 0 0 1-.113-.011 59.266 59.266 0 0 0-4.015-.648.592.592 0 0 1 .146-1.174c1.365.172 2.743.395 4.094.661a.592.592 0 0 1-.112 1.166Zm-20.431-.444a.592.592 0 0 1-.087-1.177 59.496 59.496 0 0 1 4.118-.48.591.591 0 0 1 .1 1.179c-1.348.11-2.707.269-4.038.472a.662.662 0 0 1-.093 0Zm12.287-.581h-.031a59.285 59.285 0 0 0-4.065-.087h-.008a.592.592 0 0 1-.007-1.184 60.262 60.262 0 0 1 4.145.09.592.592 0 0 1-.034 1.175Zm-3.341 107.499c-1.257 0-2.526-.05-3.772-.147a.591.591 0 0 1-.539-.636.579.579 0 0 1 .631-.544c1.215.1 2.453.144 3.679.144h.374a.592.592 0 0 1 0 1.183Zm4.477-.211a.592.592 0 0 1-.055-1.18c1.345-.128 2.7-.316 4.017-.559a.591.591 0 0 1 .211 1.164c-1.355.249-2.74.442-4.118.572a.507.507 0 0 1-.055.003Zm-12.278-.435a.526.526 0 0 1-.1-.008 47.311 47.311 0 0 1-4.067-.865.591.591 0 0 1 .292-1.146c1.3.337 2.636.621 3.967.844a.592.592 0 0 1-.092 1.175Zm20.349-1.05a.593.593 0 0 1-.155-1.163c1.3-.359 2.6-.781 3.859-1.253a.591.591 0 0 1 .408 1.109 47.525 47.525 0 0 1-3.956 1.286.609.609 0 0 1-.156.021Zm-28.294-1.01a.611.611 0 0 1-.2-.033c-1.3-.464-2.6-.991-3.858-1.568a.593.593 0 0 1-.291-.783.584.584 0 0 1 .777-.294 46.58 46.58 0 0 0 3.763 1.528.593.593 0 0 1 .358.755.586.586 0 0 1-.549.395Zm35.984-1.867a.587.587 0 0 1-.531-.339.594.594 0 0 1 .279-.788 46.635 46.635 0 0 0 3.584-1.91.585.585 0 0 1 .8.212.593.593 0 0 1-.21.809 47.757 47.757 0 0 1-3.674 1.959.592.592 0 0 1-.248.057Zm-43.457-1.557a.582.582 0 0 1-.288-.077 48.277 48.277 0 0 1-3.529-2.217.6.6 0 0 1-.153-.822.585.585 0 0 1 .817-.154c1.111.768 2.27 1.5 3.442 2.163a.594.594 0 0 1 .223.806.586.586 0 0 1-.512.301Zm50.536-2.622a.583.583 0 0 1-.479-.25.594.594 0 0 1 .139-.825 45.947 45.947 0 0 0 3.2-2.506.584.584 0 0 1 .827.069.6.6 0 0 1-.068.834 48.48 48.48 0 0 1-3.285 2.569.584.584 0 0 1-.334.109ZM362 988.967a.583.583 0 0 1-.372-.134 48.628 48.628 0 0 1-3.1-2.8.6.6 0 0 1-.009-.837.585.585 0 0 1 .83-.01 46.824 46.824 0 0 0 3.021 2.729.594.594 0 0 1 .081.832.584.584 0 0 1-.451.22Zm63.565-3.294a.578.578 0 0 1-.413-.172.6.6 0 0 1 0-.837 47.203 47.203 0 0 0 2.731-3.024.583.583 0 0 1 .826-.075.594.594 0 0 1 .075.833 48.119 48.119 0 0 1-2.8 3.1.586.586 0 0 1-.418.175Zm-69.436-2.486a.583.583 0 0 1-.444-.206 48.634 48.634 0 0 1-2.575-3.291.6.6 0 0 1 .133-.826.585.585 0 0 1 .82.134 48.745 48.745 0 0 0 2.511 3.211.594.594 0 0 1-.062.834.577.577 0 0 1-.382.144Zm74.691-3.867a.581.581 0 0 1-.335-.106.6.6 0 0 1-.146-.824c.77-1.115 1.5-2.276 2.173-3.454a.586.586 0 0 1 .8-.218.594.594 0 0 1 .216.808 48.173 48.173 0 0 1-2.228 3.541.586.586 0 0 1-.479.253Zm-79.486-2.844a.587.587 0 0 1-.5-.288 49.01 49.01 0 0 1-1.972-3.689.594.594 0 0 1 .273-.79.585.585 0 0 1 .784.275 47.974 47.974 0 0 0 1.924 3.6.594.594 0 0 1-.2.811.586.586 0 0 1-.308.081Zm83.577-4.33a.586.586 0 0 1-.247-.054.6.6 0 0 1-.285-.786 47.18 47.18 0 0 0 1.547-3.781.586.586 0 0 1 .752-.355.592.592 0 0 1 .351.758c-.471 1.311-1 2.615-1.585 3.877a.587.587 0 0 1-.532.341Zm-87.151-3.112a.588.588 0 0 1-.548-.382c-.491-1.3-.93-2.64-1.306-3.979a.587.587 0 1 1 1.129-.322 49.13 49.13 0 0 0 1.274 3.88.594.594 0 0 1-.34.764.569.569 0 0 1-.208.039Zm89.945-4.666a.6.6 0 0 1-.151-.02.592.592 0 0 1-.417-.724c.345-1.308.638-2.651.87-3.993a.587.587 0 1 1 1.156.2 48.552 48.552 0 0 1-.891 4.094.588.588 0 0 1-.566.443Zm-92.18-3.293a.589.589 0 0 1-.576-.481 48.944 48.944 0 0 1-.6-4.145.587.587 0 1 1 1.168-.122c.138 1.356.335 2.717.586 4.046a.591.591 0 0 1-.466.692.715.715 0 0 1-.111.01Zm93.589-4.856a.435.435 0 0 1-.051 0 .589.589 0 0 1-.534-.64c.114-1.346.173-2.72.173-4.084q0-.756-.024-1.507a.59.59 0 0 1 .568-.61.577.577 0 0 1 .6.573q.026.768.025 1.544c0 1.4-.06 2.806-.178 4.186a.587.587 0 0 1-.578.538Zm-94.422-3.371a.589.589 0 0 1-.587-.582q-.006-.385-.006-.771c0-1.137.04-2.286.119-3.417a.586.586 0 1 1 1.17.082 48.648 48.648 0 0 0-.109 4.087.59.59 0 0 1-.578.6h-.009Zm94.268-6.416a.59.59 0 0 1-.582-.522 48.015 48.015 0 0 0-.65-4.035.587.587 0 1 1 1.149-.241c.28 1.358.5 2.75.667 4.136a.59.59 0 0 1-.514.657.549.549 0 0 1-.069.005Zm-93.693-1.832a.582.582 0 0 1-.092-.008.59.59 0 0 1-.488-.676 49.02 49.02 0 0 1 .825-4.108.587.587 0 0 1 .712-.432.594.594 0 0 1 .428.718 45.872 45.872 0 0 0-.806 4.006.589.589 0 0 1-.579.5Zm92.026-6.264a.588.588 0 0 1-.562-.421c-.388-1.3-.838-2.6-1.336-3.86a.593.593 0 0 1 .328-.769.584.584 0 0 1 .762.33 48.164 48.164 0 0 1 1.37 3.958.591.591 0 0 1-.393.736.551.551 0 0 1-.169.024Zm-90.047-1.762a.58.58 0 0 1-.191-.032.594.594 0 0 1-.364-.752 47.984 47.984 0 0 1 1.523-3.9.587.587 0 0 1 .775-.3.6.6 0 0 1 .3.782 46.954 46.954 0 0 0-1.486 3.805.588.588 0 0 1-.557.395Zm87.01-5.919a.586.586 0 0 1-.525-.326 47.98 47.98 0 0 0-1.98-3.567.6.6 0 0 1 .19-.814.585.585 0 0 1 .808.192 48.727 48.727 0 0 1 2.031 3.657.594.594 0 0 1-.261.794.567.567 0 0 1-.263.062Zm-83.674-1.643a.574.574 0 0 1-.284-.074.594.594 0 0 1-.229-.8 49.164 49.164 0 0 1 2.171-3.575.585.585 0 0 1 .815-.16.593.593 0 0 1 .158.821 47.261 47.261 0 0 0-2.117 3.488.587.587 0 0 1-.514.298Zm79.36-5.392a.582.582 0 0 1-.471-.238 46.922 46.922 0 0 0-2.561-3.17.593.593 0 0 1 .049-.835.582.582 0 0 1 .828.049 49.681 49.681 0 0 1 2.625 3.249.6.6 0 0 1-.12.829.588.588 0 0 1-.35.114Zm-74.776-1.47a.58.58 0 0 1-.368-.131.6.6 0 0 1-.089-.833 49.385 49.385 0 0 1 2.749-3.144.583.583 0 0 1 .83-.016.6.6 0 0 1 .017.836 47.283 47.283 0 0 0-2.682 3.068.584.584 0 0 1-.457.218Zm69.324-4.712a.589.589 0 0 1-.4-.161 46.401 46.401 0 0 0-3.064-2.68.6.6 0 0 1-.094-.832.583.583 0 0 1 .824-.1 48.186 48.186 0 0 1 3.141 2.747.594.594 0 0 1 .023.836.582.582 0 0 1-.43.188Zm-63.637-1.253a.584.584 0 0 1-.442-.2.6.6 0 0 1 .055-.835c1.038-.917 2.13-1.8 3.244-2.621a.583.583 0 0 1 .82.127.594.594 0 0 1-.127.827 46.38 46.38 0 0 0-3.164 2.557.582.582 0 0 1-.386.143Zm57.211-3.893a.577.577 0 0 1-.324-.1 46.698 46.698 0 0 0-3.476-2.107.6.6 0 0 1-.236-.8.587.587 0 0 1 .8-.237 48.158 48.158 0 0 1 3.563 2.16.6.6 0 0 1 .166.82.586.586 0 0 1-.493.262Zm-50.593-1a.587.587 0 0 1-.5-.284.6.6 0 0 1 .2-.813 48.245 48.245 0 0 1 3.643-2.017.584.584 0 0 1 .786.268.594.594 0 0 1-.266.793c-1.207.6-2.4 1.263-3.553 1.968a.586.586 0 0 1-.31.087Zm43.381-2.954a.573.573 0 0 1-.234-.05 46.039 46.039 0 0 0-3.786-1.466.592.592 0 0 1 .372-1.123c1.312.443 2.618.948 3.883 1.5a.6.6 0 0 1 .3.779.588.588 0 0 1-.535.362Zm-36.028-.707a.585.585 0 0 1-.546-.377.592.592 0 0 1 .333-.766 47.818 47.818 0 0 1 3.936-1.35.584.584 0 0 1 .728.4.593.593 0 0 1-.4.733 45.7 45.7 0 0 0-3.838 1.316.592.592 0 0 1-.213.046Zm28.248-1.921a.591.591 0 0 1-.138-.016 46.236 46.236 0 0 0-3.98-.78.592.592 0 0 1 .174-1.171c1.367.206 2.739.476 4.08.8a.592.592 0 0 1-.136 1.169Zm-20.373-.4a.592.592 0 0 1-.114-1.172 48.165 48.165 0 0 1 4.108-.639.592.592 0 0 1 .129 1.177 46.678 46.678 0 0 0-4.008.623.567.567 0 0 1-.114.016Zm12.259-.826h-.036a47.314 47.314 0 0 0-4.055-.078.6.6 0 0 1-.6-.578.59.59 0 0 1 .573-.605 48.415 48.415 0 0 1 4.155.079.592.592 0 0 1-.037 1.187Zm-4.735 83.321h-.029a35.7 35.7 0 0 1-4.149-.448.59.59 0 0 1-.483-.68.582.582 0 0 1 .675-.487 34.707 34.707 0 0 0 4.014.433.592.592 0 0 1-.028 1.187Zm4.1-.032a.592.592 0 0 1-.038-1.183 35.065 35.065 0 0 0 4.006-.5.592.592 0 0 1 .211 1.165 36.037 36.037 0 0 1-4.14.514Zm-12.19-1.321a.622.622 0 0 1-.163-.023 35.7 35.7 0 0 1-3.937-1.4.593.593 0 0 1-.313-.775.585.585 0 0 1 .768-.317 34.464 34.464 0 0 0 3.812 1.363.593.593 0 0 1-.163 1.157Zm20.252-.165a.592.592 0 0 1-.171-1.157 34.984 34.984 0 0 0 3.786-1.411.583.583 0 0 1 .773.3.593.593 0 0 1-.3.779 35.871 35.871 0 0 1-3.913 1.464.57.57 0 0 1-.171.03Zm-27.814-3.035a.582.582 0 0 1-.288-.077 36.1 36.1 0 0 1-3.51-2.277.594.594 0 0 1-.129-.826.583.583 0 0 1 .82-.13 35.365 35.365 0 0 0 3.4 2.2.6.6 0 0 1 .223.806.586.586 0 0 1-.512.309Zm35.318-.285a.588.588 0 0 1-.507-.293.594.594 0 0 1 .21-.809 34.982 34.982 0 0 0 3.359-2.256.582.582 0 0 1 .822.117.593.593 0 0 1-.116.828 36.023 36.023 0 0 1-3.472 2.331.571.571 0 0 1-.292.087Zm-41.944-4.581a.582.582 0 0 1-.4-.157 36.463 36.463 0 0 1-2.9-3.024.594.594 0 0 1 .061-.834.582.582 0 0 1 .828.063 35.7 35.7 0 0 0 2.806 2.925.594.594 0 0 1 .034.836.581.581 0 0 1-.425.196ZM416.44 978a.579.579 0 0 1-.425-.184.594.594 0 0 1 .021-.836 35.444 35.444 0 0 0 2.761-2.971.583.583 0 0 1 .826-.075.594.594 0 0 1 .075.833 36.837 36.837 0 0 1-2.853 3.071.586.586 0 0 1-.405.162Zm-53.84-5.87a.588.588 0 0 1-.487-.259 36.793 36.793 0 0 1-2.137-3.612.6.6 0 0 1 .25-.8.585.585 0 0 1 .791.252 35.638 35.638 0 0 0 2.068 3.5.593.593 0 0 1-.157.821.579.579 0 0 1-.328.098Zm59.09-.474a.577.577 0 0 1-.321-.1.594.594 0 0 1-.17-.819 35.334 35.334 0 0 0 2.013-3.53.584.584 0 0 1 .788-.264.594.594 0 0 1 .262.794 36.578 36.578 0 0 1-2.081 3.648.584.584 0 0 1-.49.271Zm-62.873-6.856a.587.587 0 0 1-.549-.381 36.653 36.653 0 0 1-1.254-4.013.587.587 0 1 1 1.138-.29 35.415 35.415 0 0 0 1.213 3.884.591.591 0 0 1-.34.763.564.564 0 0 1-.208.037Zm66.541-.539a.581.581 0 0 1-.2-.035.593.593 0 0 1-.352-.758 35.169 35.169 0 0 0 1.151-3.9.587.587 0 1 1 1.143.27 36.364 36.364 0 0 1-1.19 4.035.589.589 0 0 1-.552.389Zm-68.546-7.474a.588.588 0 0 1-.581-.514 36.944 36.944 0 0 1-.3-4.194.59.59 0 0 1 .578-.6h.009a.59.59 0 0 1 .587.583 35.474 35.474 0 0 0 .294 4.058.591.591 0 0 1-.5.664.691.691 0 0 1-.087.004Zm70.422-.572h-.067a.591.591 0 0 1-.516-.655 36.278 36.278 0 0 0 .23-4.065c0-.381-.006-.761-.018-1.137a.587.587 0 1 1 1.173-.038c.013.391.019.782.018 1.176a37.477 37.477 0 0 1-.237 4.2.589.589 0 0 1-.583.52Zm-70.551-7.688h-.059a.591.591 0 0 1-.526-.647 36.881 36.881 0 0 1 .65-4.156.587.587 0 1 1 1.147.252 35.606 35.606 0 0 0-.629 4.02.589.589 0 0 1-.583.532Zm70.4-1.722a.589.589 0 0 1-.581-.5 35.332 35.332 0 0 0-.821-3.985.591.591 0 0 1 .414-.725.585.585 0 0 1 .719.417 36.577 36.577 0 0 1 .85 4.12.591.591 0 0 1-.5.671.633.633 0 0 1-.08.003Zm-68.656-6.354a.58.58 0 0 1-.191-.032.592.592 0 0 1-.364-.752 36.439 36.439 0 0 1 1.585-3.895.583.583 0 0 1 .783-.277.6.6 0 0 1 .275.79 35.3 35.3 0 0 0-1.534 3.767.588.588 0 0 1-.553.4Zm66.523-1.623a.588.588 0 0 1-.545-.373 35.122 35.122 0 0 0-1.711-3.683.594.594 0 0 1 .237-.8.585.585 0 0 1 .8.238 36.5 36.5 0 0 1 1.768 3.808.592.592 0 0 1-.327.769.576.576 0 0 1-.221.042ZM361.976 933a.578.578 0 0 1-.313-.092.594.594 0 0 1-.183-.816 36.356 36.356 0 0 1 2.43-3.421.583.583 0 0 1 .825-.089.6.6 0 0 1 .089.832 35.26 35.26 0 0 0-2.352 3.31.583.583 0 0 1-.496.276Zm59.077-1.436a.583.583 0 0 1-.481-.252 35.61 35.61 0 0 0-2.506-3.192.6.6 0 0 1 .048-.834.583.583 0 0 1 .829.048 36.372 36.372 0 0 1 2.589 3.3.593.593 0 0 1-.143.823.572.572 0 0 1-.336.107Zm-53.928-5a.583.583 0 0 1-.418-.177.6.6 0 0 1 .006-.837 36.633 36.633 0 0 1 3.14-2.771.584.584 0 0 1 .824.1.6.6 0 0 1-.1.831 35.233 35.233 0 0 0-3.037 2.681.587.587 0 0 1-.415.177Zm48.48-1.178a.58.58 0 0 1-.391-.15 35.539 35.539 0 0 0-3.163-2.533.593.593 0 0 1-.142-.823.584.584 0 0 1 .818-.144 36.6 36.6 0 0 1 3.273 2.621.594.594 0 0 1 .048.835.581.581 0 0 1-.443.198Zm-42.012-3.9a.583.583 0 0 1-.5-.285.594.594 0 0 1 .2-.812 36.1 36.1 0 0 1 3.684-1.973.587.587 0 0 1 .778.292.594.594 0 0 1-.288.785 34.539 34.539 0 0 0-3.564 1.907.588.588 0 0 1-.31.093Zm35.307-.86a.569.569 0 0 1-.28-.073 34.636 34.636 0 0 0-3.655-1.731.594.594 0 0 1-.326-.77.584.584 0 0 1 .763-.329 36.014 36.014 0 0 1 3.779 1.791.594.594 0 0 1 .235.8.586.586 0 0 1-.516.319Zm-27.858-2.582a.592.592 0 0 1-.181-1.155 35.516 35.516 0 0 1 4.038-1.061.591.591 0 0 1 .229 1.16 34.55 34.55 0 0 0-3.9 1.027.575.575 0 0 1-.186.036Zm20.248-.494a.6.6 0 0 1-.155-.021 34.79 34.79 0 0 0-3.951-.834.591.591 0 0 1 .174-1.17 35.889 35.889 0 0 1 4.085.862.592.592 0 0 1-.153 1.17Zm-12.212-1.123a.592.592 0 0 1-.047-1.181 35.773 35.773 0 0 1 2.947-.121c.424-.009.818.006 1.225.02a.591.591 0 0 1 .566.612.585.585 0 0 1-.605.571c-.394-.013-.771-.008-1.186-.02-.948 0-1.908.04-2.852.117Z" transform="translate(-332 -891)" style="fill:#ffb534;fill-rule:evenodd"/></svg><svg viewBox="0 0 14 20" id="location-icon" xmlns="http://www.w3.org/2000/svg"><path data-name="Location icon" d="M405 1637a7.131 7.131 0 0 0-7 7.24c0 4.96 6.262 12.23 6.529 12.53a.613.613 0 0 0 .937 0c.267-.3 6.529-7.57 6.529-12.53A7.131 7.131 0 0 0 405 1637Zm0 10.88a3.642 3.642 0 1 1 3.521-3.64 3.584 3.584 0 0 1-3.521 3.64Z" transform="translate(-398 -1637)" style="fill:#fe3e57;fill-rule:evenodd"/></svg><svg viewBox="0 0 18 20" id="mail-icon" xmlns="http://www.w3.org/2000/svg"><path d="M396 1744.94v10.31a1.7 1.7 0 0 0 .18.75l5.571-5.44c-2.134-2.09-3.531-3.45-5.751-5.62Zm12.248 5.62 5.57 5.44a1.686 1.686 0 0 0 .181-.75v-10.31c-2.13 2.08-3.593 3.51-5.751 5.62Zm-3.248-7.62a.585.585 0 1 0 .591.54.591.591 0 0 0-.591-.54Zm2.151 8.2h-4.3l-5.819 5.69a1.805 1.805 0 0 0 .771.17h14.4a1.805 1.805 0 0 0 .771-.17Zm-8.751-5.52v-3.51l-1.8 1.76Zm15-1.75-1.8-1.76v3.51Zm-6.248 6.1 3.248-3.17v-9.05a.756.756 0 0 0-.769-.75h-9.374a.644.644 0 0 0-.656.64v9.16l3.248 3.17h4.3Zm-6.351-6.45a4.2 4.2 0 0 1 8.4 0 1.8 1.8 0 0 1-3 1.3 1.744 1.744 0 1 1 .6-1.3.6.6 0 0 0 1.2 0 3 3 0 0 0-6 0 2.894 2.894 0 0 0 1.386 2.47 3.177 3.177 0 0 0 3.028.15.586.586 0 1 1 .5 1.06 4.362 4.362 0 0 1-4.176-.22 4.067 4.067 0 0 1-1.939-3.46Z" transform="translate(-396 -1737)" style="fill:#fe3e57;fill-rule:evenodd"/></svg><svg fill="#fff" viewBox="0 0 24 24" id="ok" xmlns="http://www.w3.org/2000/svg"><path d="M20.293 5.293 9 16.586l-4.293-4.293-1.414 1.414L9 19.414 21.707 6.707l-1.414-1.414z"/></svg><svg viewBox="0 0 20 20" id="ok2" xmlns="http://www.w3.org/2000/svg"><path d="M422.071 1657.48a10 10 0 1 0 2.929 7.07 9.931 9.931 0 0 0-2.929-7.07Zm-7.071 15.9a8.83 8.83 0 1 1 8.828-8.83 8.838 8.838 0 0 1-8.828 8.83Zm3.949-12.04-5.174 5.18-2.724-2.73a.587.587 0 1 0-.829.83l3.138 3.14a.59.59 0 0 0 .829 0l5.588-5.59a.586.586 0 0 0-.828-.83Z" transform="translate(-405 -1654.56)" style="fill:#fe3e57;fill-rule:evenodd"/></svg><svg viewBox="0 0 1920 744.03" id="pattern" xmlns="http://www.w3.org/2000/svg"><path d="m58.046 2314.18-1.67-1.58 1.813 1.39 5.19-6.71 30.49-28.82 30.631 28.98 4.26 5.53 48.615-45.99h2.206l-49.889 47.2.744.96-36.567-34.6-36.57 34.6Zm-49.888-47.2h2.205l46.6 44.09-.932 1.2Zm85.711 80.85-73.438 69.48-.931-1.21 74.369-70.36 74.369 70.36-.931 1.21Zm-14.274 145.98 14.274-13.5 14.274 13.5-.931 1.21-13.343-12.63-13.343 12.63Zm-30.047-38.85 44.321-41.94 44.322 41.94-.931 1.2-43.391-41.05-43.389 41.05Zm44.321-6.21L65.5 2475.59l-.932-1.21 29.3-27.72 29.3 27.72-.931 1.21Zm0-134.56-88.462 83.69-.932-1.21 89.393-84.57 89.393 84.57-.933 1.21Zm21.878-22.55 26.07-24.66h2.206l-27.344 25.87Zm-15.025-19.43 5.536-5.23h2.207l-6.809 6.44Zm89.384 52.09-28.354 26.83-.932-1.21 29.2-27.63.014.02.084-.08 29.271 27.69-.933 1.21Zm-74.359 216.26 74.359-70.35 74.357 70.35-.932 1.21-73.425-69.47-73.427 69.47Zm-15.024-19.43 89.383-84.56 89.381 84.56-.932 1.21-88.449-83.68-88.45 83.68ZM-1 2359.24v-2.09l12.9 12.2-.933 1.21Zm0-67.28v-2.09l42.941 40.63-.932 1.2Zm0 33.64v-2.09l27.919 26.41-.933 1.21Zm80.273-58.62h2.207l5.535 5.23-.932 1.21Zm-35.559 0h2.206l26.068 24.66-.931 1.21ZM-1 2439.95v-2.09l88.015 83.27-.932 1.21Zm0 33.64v-2.09l72.989 69.06-.931 1.21Zm251.519-159.41-1.672-1.59 1.815 1.4 5.191-6.71 30.49-28.82 30.631 28.98 4.26 5.53 48.615-45.99h2.206l-49.889 47.2.744.96-36.567-34.6-36.573 34.6Zm-49.888-47.2h2.206l46.6 44.09-.932 1.2Zm85.712 80.85-73.438 69.48-.931-1.21 74.369-70.36 74.369 70.36-.933 1.21Zm-14.274 145.98 14.274-13.5 14.273 13.5-.932 1.21-13.341-12.63L273 2495.02Zm14.274-78.7-43.391 41.05-.932-1.2 44.323-41.94 44.322 41.94-.933 1.2Zm-29.3 59.27 29.3-27.72 29.3 27.72-.932 1.21-28.366-26.84-28.367 26.84Zm29.3-160.19-88.462 83.69-.931-1.21 89.393-84.57 89.393 84.57-.933 1.21Zm21.878-22.55 26.069-24.66h2.21l-27.343 25.87Zm-15.021-19.43 5.536-5.23h2.207l-6.81 6.44Zm89.384 52.09-28.355 26.83-.931-1.21 29.26-27.68.072.07.025-.03 29.215 27.64-.933 1.21Zm-74.359 216.26 74.358-70.35 74.358 70.35-.932 1.21-73.429-69.47-73.427 69.47Zm-15.025-19.43 89.382-84.56 89.381 84.56-.929 1.21-88.451-83.68-88.451 83.68Zm-117.356-151.78 14.262-13.49 14.262 13.49-.932 1.21-13.33-12.61-13.33 12.61ZM145.8 2330.5l44.225-41.85.016.02.085-.08 44.293 41.91-.932 1.2-43.377-41.04-43.379 41.04Zm125.951-63.52h2.2l5.535 5.23-.932 1.21Zm-35.559 0h2.208l26.068 24.66-.932 1.21Zm206.8 47.2-1.675-1.59 1.818 1.4 5.192-6.71 30.489-28.82 30.633 28.98 4.26 5.53 48.614-45.99h2.206l-49.889 47.2.749.96-36.573-34.6-36.575 34.61Zm-49.887-47.2h2.206l46.6 44.09-.931 1.2Zm85.711 80.85-73.437 69.48-.932-1.21 74.369-70.36 74.371 70.36-.935 1.21Zm0 134.56-13.342 12.63-.932-1.21 14.274-13.5 14.275 13.5-.932 1.21Zm0-67.28-43.39 41.05-.932-1.2 44.322-41.94 44.323 41.94-.932 1.2Zm-29.3 59.27 29.3-27.72 29.3 27.72-.929 1.21-28.368-26.84-28.365 26.84Zm-60.1-77.71 89.393-84.57 89.394 84.57-.932 1.21-88.462-83.69-88.46 83.69Zm111.272-105.03 26.068-24.66h2.208l-27.344 25.87Zm-15.023-19.43 5.534-5.23h2.208l-6.81 6.44Zm89.383 52.09-28.348 26.83-.932-1.21 29.287-27.7 29.286 27.7-.935 1.21Zm-74.36 216.26 74.357-70.35 74.36 70.35-.932 1.21-73.425-69.47-73.428 69.47Zm74.36-101.9-88.448 83.68-.932-1.21 89.383-84.56 89.38 84.56-.932 1.21Zm-192.468-80.71-13.332 12.61-.93-1.21 14.262-13.49 14.262 13.49-.932 1.21Zm-44.311-27.45 44.284-41.9.073.07.026-.03 44.237 41.86-.932 1.2-43.377-41.04-43.38 41.04Zm125.952-63.52h2.2l5.534 5.23-.929 1.21Zm-35.56 0h2.208l26.068 24.66-.932 1.21Zm206.8 47.2-1.675-1.59 1.818 1.4 5.189-6.71 30.492-28.82 30.633 28.98 4.26 5.53 48.614-45.99H757l-49.889 47.2.749.96-36.573-34.6-36.575 34.61Zm-49.888-47.2h2.208l46.6 44.09-.931 1.2Zm85.712 80.85-73.436 69.48-.932-1.21 74.368-70.36 74.371 70.36-.934 1.21Zm0 134.56-13.342 12.63-.932-1.21 14.274-13.5 14.274 13.5-.931 1.21Zm-44.322-27.43 44.322-41.94 44.323 41.94-.932 1.2-43.391-41.05-43.39 41.05Zm15.025 19.42 29.3-27.72 29.3 27.72-.931 1.21-28.366-26.84-28.365 26.84Zm29.3-160.19-88.461 83.69-.932-1.21 89.393-84.57 89.394 84.57-.932 1.21Zm21.879-22.55 26.068-24.66h2.208l-27.343 25.87Zm-15.023-19.43 5.534-5.23h2.208l-6.81 6.44Zm89.383 52.09-28.355 26.83-.932-1.21 29.287-27.7 29.283 27.7-.932 1.21Zm-74.36 216.26 74.357-70.35 74.357 70.35-.929 1.21-73.425-69.47-73.427 69.47Zm74.36-101.9-88.451 83.68-.932-1.21 89.38-84.56 89.382 84.56-.931 1.21Zm-206.737-69.31 14.264-13.49 14.261 13.49-.932 1.21-13.329-12.61-13.332 12.61Zm-30.048-38.85 44.312-41.93 44.308 41.93-.931 1.2-43.377-41.04-43.38 41.04Zm125.95-63.52h2.208l5.534 5.23-.932 1.21Zm-35.558 0h2.206l26.071 24.66-.932 1.21Zm206.8 47.2-1.675-1.59 1.818 1.4 5.189-6.71 30.492-28.82 30.633 28.98 4.26 5.53 48.614-45.99h2.205l-49.888 47.2.749.96-36.573-34.6-36.575 34.61Zm-49.888-47.2h2.2l46.6 44.09-.931 1.2Zm85.712 80.85-73.439 69.48-.931-1.21 74.37-70.36 74.371 70.36-.935 1.21Zm0 134.56-13.342 12.63-.932-1.21 14.274-13.5 14.274 13.5-.931 1.21Zm0-67.28-43.391 41.05-.931-1.2 44.322-41.94 44.323 41.94-.932 1.2Zm-29.3 59.27 29.3-27.72 29.3 27.72-.932 1.21-28.365-26.84-28.361 26.84Zm29.3-160.19-88.458 83.69-.931-1.21 89.393-84.57 89.394 84.57-.932 1.21Zm21.879-22.55 26.068-24.66h2.208l-27.345 25.87Zm-15.023-19.43 5.533-5.23h2.208l-6.809 6.44ZM960 2324.3l-28.355 26.83-.929-1.21 29.284-27.7 29.284 27.7-.932 1.21Zm-74.357 216.26L960 2470.21l74.361 70.35-.94 1.21L960 2472.3l-73.426 69.47ZM960 2438.66l-88.448 83.68-.932-1.21 89.38-84.56 89.381 84.56-.93 1.21Zm-206.735-69.31 14.264-13.49 14.26 13.49-.931 1.21-13.329-12.61-13.329 12.61Zm-30.048-38.85 44.309-41.93 44.311 41.93-.931 1.2-43.377-41.04-43.38 41.04Zm125.95-63.52h2.208l5.533 5.23-.931 1.21Zm-35.558 0h2.206l26.068 24.66-.929 1.2Zm206.8 47.2-1.67-1.59 1.82 1.4 5.18-6.71 30.5-28.82 30.63 28.98 4.26 5.53 48.61-45.99h2.21l-49.89 47.2.75.96-36.57-34.6-36.58 34.61Zm-49.885-47.2h2.205l46.6 44.09-.93 1.2Zm11.341 149.12 74.374-70.36 74.36 70.36-.93 1.21-73.43-69.48-73.439 69.48Zm74.374 66.29-13.35 12.63-.93-1.21 14.28-13.5 14.27 13.5-.93 1.21Zm-44.33-27.43 44.33-41.94 44.32 41.94-.93 1.2-43.39-41.05-43.39 41.05Zm15.03 19.42 29.3-27.72 29.29 27.72-.93 1.21-28.36-26.84-28.37 26.84Zm29.3-160.19-88.465 83.69-.932-1.21 89.4-84.57 89.39 84.57-.93 1.21Zm21.88-22.55 26.06-24.66h2.21l-27.34 25.87Zm-15.03-19.43 5.54-5.23h2.2l-6.81 6.44Zm89.38 52.09-28.35 26.83-.93-1.21 29.28-27.7 29.29 27.7-.93 1.21Zm-74.35 216.26 74.35-70.35 74.36 70.35-.93 1.21-73.43-69.47-73.42 69.47Zm74.35-101.9-88.45 83.68-.93-1.21 89.38-84.56 89.39 84.56-.94 1.21Zm-206.732-69.31L960 2355.86l14.261 13.49-.932 1.21L960 2357.95l-13.329 12.61Zm-30.047-38.85 44.31-41.93 44.311 41.93-.93 1.2L960 2290.66l-43.377 41.04Zm125.95-63.52h2.21l5.53 5.23-.93 1.21Zm-35.56 0h2.21l26.07 24.66-.94 1.21Zm206.81 47.2-49.89-47.2h2.2l48.62 45.99 4.4-5.69 30.49-28.82 30.63 28.98 4.26 5.53 48.62-45.99h2.2l-49.89 47.2.74.95-36.56-34.59-36.57 34.61Zm-38.55 101.92 74.37-70.36 74.37 70.36-.93 1.21-73.44-69.48-73.44 69.48Zm60.1 77.71 14.27-13.5 14.27 13.5-.93 1.21-13.34-12.63-13.34 12.63Zm14.27-78.7-43.39 41.05-.93-1.2 44.32-41.94 44.32 41.94-.93 1.2Zm-29.3 59.27 29.3-27.72 29.3 27.72-.93 1.21-28.37-26.84-28.37 26.84Zm29.3-160.19-88.46 83.69-.93-1.21 89.39-84.57 89.39 84.57-.93 1.21Zm21.88-22.55 26.07-24.66h2.2l-27.34 25.87Zm-15.03-19.43 5.54-5.23h2.21l-6.81 6.44Zm89.39 52.09-28.36 26.83-.93-1.21 29.2-27.63.08.09.08-.1 29.21 27.64-.93 1.21Zm-74.36 216.26 74.33-70.33.02.02.02-.02 74.34 70.33-.93 1.21-73.42-69.47-73.43 69.47Zm74.36-101.9-88.45 83.68-.94-1.21 89.36-84.54.02.02.02-.03 89.37 84.55-.93 1.21Zm-206.74-69.31 14.27-13.49 14.26 13.49-.94 1.21-13.33-12.61-13.33 12.61Zm14.26-78.69-43.37 41.04-.94-1.2 44.31-41.93 44.31 41.93-.93 1.2Zm81.64-23.68h2.21l5.54 5.23-.94 1.21Zm-35.55 0h2.2l26.07 24.66-.93 1.21Zm242.62 13.56-36.56 34.6.74-.96-49.89-47.2h2.21l48.61 45.99 4.4-5.69 30.49-28.82 30.64 28.98 4.25 5.53 48.62-45.99h2.21l-49.89 47.2.74.96Zm0 67.29-73.43 69.48-.94-1.21 74.37-70.36 74.37 70.36-.93 1.21Zm0 134.56-13.34 12.63-.93-1.21 14.27-13.5 14.28 13.5-.94 1.21Zm0-67.28-43.39 41.05-.93-1.2 44.32-41.94 44.32 41.94-.93 1.2Zm0 33.64-28.36 26.84-.93-1.21 29.29-27.72 29.3 27.72-.93 1.21Zm0-134.56-88.46 83.69-.93-1.21 89.39-84.57 89.4 84.57-.94 1.21Zm21.88-22.55 26.07-24.66h2.21l-27.35 25.86Zm-15.02-19.43 5.53-5.23h2.21l-6.81 6.44Zm89.38 52.09-28.35 26.83-.94-1.21 29.21-27.63.07.09.08-.1 29.22 27.64-.94 1.21Zm0 148-73.43 69.47-.93-1.21 74.34-70.33.01.02.02-.02 74.35 70.33-.93 1.21Zm0-33.64-88.45 83.68-.93-1.21 89.36-84.54.01.02.02-.03 89.37 84.55-.93 1.21Zm-206.73-69.31 14.23-13.47.02.02.02-.03 14.25 13.48-.93 1.21-13.33-12.61-13.33 12.61Zm14.26-78.69-43.38 41.04-.93-1.2 44.22-41.85.08.09.08-.1 44.24 41.86-.94 1.2Zm81.64-23.68h2.2l5.54 5.23-.93 1.21Zm-35.56 0h2.21l26.06 24.66-.93 1.21ZM93.869 2596.75l-73.438 69.48-.932-1.21 74.369-70.36 74.369 70.36-.931 1.21Zm-14.274 145.98 14.274-13.5 14.274 13.5-.931 1.21-13.343-12.63-13.343 12.63Zm-30.047-38.85 44.321-41.94 44.322 41.94-.931 1.2-43.391-41.05-43.389 41.05Zm44.321-6.21L65.5 2724.51l-.932-1.21 29.3-27.72 29.3 27.72-.931 1.21Zm0-134.56L5.407 2646.8l-.932-1.21 89.393-84.57 89.393 84.57-.933 1.21Zm96.237 43.76-13.33 12.61-.932-1.21 14.262-13.49 14.262 13.49-.932 1.21Zm0-67.29-43.379 41.04-.931-1.2 44.31-41.93 44.309 41.93-.932 1.2Zm0 33.64-28.354 26.83-.932-1.21 29.286-27.7 29.286 27.7-.933 1.21Zm-74.359 216.26 74.359-70.35 74.357 70.35-.932 1.21-73.425-69.47-73.427 69.47Zm-15.025-19.43 89.384-84.56 89.381 84.56-.932 1.21-88.449-83.68-88.45 83.68ZM-1 2608.16v-2.09l12.9 12.2-.933 1.21Zm0-67.28v-2.09l42.941 40.63-.932 1.2Zm0 33.64v-2.09l27.918 26.41-.931 1.21Zm0 114.35v-2.09l88.015 83.27-.932 1.21Zm0 33.64v-2.09l72.989 69.06-.931 1.21Zm287.343-125.76-73.438 69.48-.931-1.21 74.369-70.36 74.369 70.36-.933 1.21Zm-14.274 145.98 14.274-13.5 14.273 13.5-.932 1.21-13.341-12.63L273 2743.94Zm14.274-78.7-43.391 41.05-.932-1.2 44.323-41.94 44.322 41.94-.933 1.2Zm-29.3 59.27 29.3-27.72 29.3 27.72-.932 1.21-28.366-26.84-28.367 26.84Zm29.3-160.19-88.462 83.69-.931-1.21 89.393-84.57 89.393 84.57-.933 1.21Zm96.237 43.76-13.332 12.61-.932-1.21 14.264-13.49 14.262 13.49-.932 1.21Zm0-67.29-43.38 41.04-.932-1.2 44.311-41.93 44.309 41.93-.932 1.2Zm0 33.64-28.355 26.83-.931-1.21 29.286-27.7 29.286 27.7-.933 1.21Zm-74.359 216.26 74.358-70.35 74.358 70.35-.932 1.21-73.425-69.47-73.427 69.47Zm-15.021-19.43 89.383-84.56 89.381 84.56-.929 1.21-88.451-83.68-88.451 83.68Zm185.619-173.3-73.437 69.48-.932-1.21 74.369-70.36 74.371 70.36-.935 1.21Zm0 134.56-13.342 12.63-.932-1.21 14.274-13.5 14.275 13.5-.932 1.21Zm0-67.28-43.39 41.05-.932-1.2 44.322-41.94 44.323 41.94-.932 1.2Zm-29.3 59.27 29.3-27.72 29.3 27.72-.929 1.21-28.368-26.84-28.365 26.84Zm-60.1-77.71 89.393-84.57 89.394 84.57-.932 1.21-88.462-83.69-88.46 83.69Zm171.368-27.32 14.264-13.49 14.261 13.49-.932 1.21-13.329-12.61-13.332 12.61Zm14.264-78.69-43.38 41.04-.932-1.2 44.312-41.93 44.308 41.93-.931 1.2Zm0 33.64-28.351 26.83-.932-1.21 29.287-27.7 29.286 27.7-.935 1.21Zm-74.36 216.26 74.357-70.35 74.36 70.35-.932 1.21-73.425-69.47-73.428 69.47Zm-15.023-19.43 89.383-84.56 89.38 84.56-.932 1.21-88.448-83.68-88.451 83.68Zm185.618-173.3-73.436 69.48-.932-1.21 74.368-70.36 74.371 70.36-.934 1.21Zm0 134.56-13.342 12.63-.932-1.21 14.274-13.5 14.274 13.5-.931 1.21Zm-44.322-27.43 44.322-41.94 44.323 41.94-.932 1.2-43.391-41.05-43.39 41.05Zm15.025 19.42 29.3-27.72 29.3 27.72-.931 1.21-28.366-26.84-28.365 26.84Zm29.3-160.19-88.461 83.69-.932-1.21 89.393-84.57 89.394 84.57-.932 1.21Zm81.975 55.16 14.261-13.49 14.263 13.49-.931 1.21-13.329-12.61-13.328 12.61Zm14.264-78.69-43.38 41.04-.932-1.2 44.309-41.93 44.311 41.93-.931 1.2Zm0 33.64-28.355 26.83-.932-1.21 29.287-27.7 29.283 27.7-.932 1.21Zm-74.36 216.26 74.357-70.35 74.357 70.35-.929 1.2-73.425-69.46-73.428 69.47Zm-15.023-19.43 89.38-84.56 89.382 84.56-.931 1.21-88.448-83.68-88.451 83.68Zm185.618-173.3-73.439 69.48-.931-1.21 74.37-70.36 74.371 70.36-.935 1.21Zm0 134.56-13.342 12.63-.932-1.21 14.274-13.5 14.274 13.5-.931 1.21Zm0-67.28-43.391 41.05-.931-1.2 44.322-41.94 44.323 41.94-.932 1.2Zm-29.3 59.27 29.3-27.72 29.3 27.72-.932 1.21-28.365-26.84-28.366 26.84Zm29.3-160.19L775.3 2646.8l-.931-1.21 89.393-84.57 89.394 84.57-.932 1.21ZM960 2606.87l-13.329 12.61-.932-1.21L960 2604.78l14.261 13.49-.932 1.21Zm0-67.29-43.377 41.04-.932-1.2L960 2537.49l44.311 41.93-.93 1.2Zm0 33.64-28.355 26.83-.929-1.21 29.284-27.7 29.284 27.7-.932 1.21Zm-74.357 216.26L960 2719.13l74.361 70.35-.94 1.21L960 2721.22l-73.426 69.47Zm-15.023-19.43 89.38-84.56 89.381 84.56-.93 1.21L960 2687.58l-88.448 83.68Zm111.247-105.03 74.374-70.36 74.36 70.36-.93 1.21-73.43-69.48-73.441 69.48Zm74.374 66.29-13.35 12.63-.93-1.21 14.28-13.5 14.27 13.5-.93 1.21Zm-44.33-27.43 44.33-41.94 44.32 41.94-.93 1.2-43.39-41.05-43.39 41.05Zm15.03 19.42 29.3-27.72 29.29 27.72-.93 1.21-28.36-26.84-28.37 26.84Zm29.3-160.19-88.465 83.69-.932-1.21 89.4-84.57 89.39 84.57-.93 1.21Zm96.23 43.76-13.33 12.61-.93-1.21 14.26-13.49 14.27 13.49-.94 1.21Zm0-67.29-43.37 41.04-.94-1.2 44.31-41.93 44.31 41.93-.93 1.2Zm0 33.64-28.35 26.83-.93-1.21 29.28-27.7 29.29 27.7-.93 1.21Zm-74.35 216.26 74.35-70.35 74.36 70.35-.93 1.21-73.43-69.47-73.42 69.47Zm-15.03-19.43 89.38-84.56 89.39 84.56-.94 1.21-88.45-83.68-88.45 83.68Zm111.25-105.03 74.37-70.36 74.37 70.36-.93 1.21-73.44-69.48-73.44 69.48Zm60.1 77.71 14.27-13.5 14.27 13.5-.93 1.21-13.34-12.63-13.34 12.63Zm14.27-78.7-43.39 41.05-.93-1.2 44.32-41.94 44.32 41.94-.93 1.2Zm-29.3 59.27 29.3-27.72 29.3 27.72-.93 1.21-28.37-26.84-28.37 26.84Zm29.3-160.19-88.46 83.69-.93-1.21 89.39-84.57 89.39 84.57-.93 1.21Zm96.24 43.76-13.33 12.61-.93-1.21 14.23-13.47.02.02.02-.03 14.25 13.48-.93 1.21Zm0-67.29-43.38 41.04-.93-1.2 44.28-41.9.02.01.02-.02 44.3 41.91-.94 1.2Zm0 33.64-28.36 26.83-.93-1.21 29.26-27.68.02.01.02-.02 29.27 27.69-.93 1.21Zm-74.36 216.26 74.33-70.33.02.02.02-.03 74.34 70.34-.93 1.21-73.42-69.47-73.43 69.47Zm-15.03-19.43 89.36-84.54.02.02.02-.03 89.37 84.55-.93 1.21-88.45-83.68-88.45 83.68Zm185.62-173.3-73.43 69.48-.94-1.21 74.37-70.36 74.37 70.36-.93 1.21Zm0 134.56-13.34 12.63-.93-1.21 14.27-13.5 14.28 13.5-.94 1.21Zm0-67.28-43.39 41.05-.93-1.2 44.32-41.94 44.32 41.94-.93 1.2Zm0 33.64-28.36 26.84-.93-1.21 29.29-27.72 29.3 27.72-.93 1.21Zm0-134.56-88.46 83.69-.93-1.21 89.39-84.57 89.4 84.57-.94 1.21Zm96.24 43.76-13.33 12.61-.93-1.21 14.24-13.47.01.02.02-.03 14.25 13.48-.93 1.21Zm0-67.29-43.38 41.04-.93-1.2 44.29-41.9.01.01.02-.02 44.3 41.91-.93 1.2Zm0 33.64-28.35 26.83-.94-1.21 29.27-27.68.01.01.02-.02 29.28 27.69-.94 1.21Zm0 148-73.43 69.46-.93-1.2 74.34-70.33.01.02.02-.03 74.35 70.34-.93 1.21Zm-89.38 48.83 89.36-84.54.01.02.02-.03 89.37 84.55-.93 1.21-88.45-83.68-88.45 83.68ZM93.869 2845.67l-73.438 69.48-.932-1.21 74.369-70.36 74.369 70.36-.931 1.21Zm-14.274 145.98 14.274-13.5 14.274 13.5-.931 1.21-13.343-12.63-13.343 12.63Zm-30.047-38.85 44.321-41.94 44.322 41.94-.931 1.2-43.391-41.05L50.48 2954Zm44.321-6.21L65.5 2973.43l-.932-1.21 29.3-27.72 29.3 27.72-.931 1.21Zm0-134.56-88.462 83.69-.932-1.21 89.393-84.57 89.393 84.57-.933 1.21Zm81.975 55.16 14.262-13.49 14.262 13.49-.932 1.21-13.33-12.61-13.33 12.61Zm-30.044-38.85 44.225-41.85.016.02.085-.08 44.293 41.91-.932 1.2-43.377-41.04-43.379 41.04Zm44.31-6.2-28.354 26.83-.932-1.21 29.2-27.63.014.02.084-.08 29.271 27.69-.933 1.21Zm43.173 188.85-43.173-40.85-43.173 40.85h-2.208l45.381-42.94 45.379 42.94h-2.206Zm-35.558 0-7.615-7.21-7.615 7.21h-2.207l9.822-9.3 9.822 9.3h-2.207Zm71.116 0-78.731-74.49-78.732 74.49h-2.206l80.938-76.58 80.938 76.58h-2.207ZM-1 2857.08v-2.09l12.9 12.2-.933 1.21Zm0-67.28v-2.09l42.941 40.63-.932 1.2Zm0 33.64v-2.09l27.919 26.41-.933 1.21Zm77.364 187.55L-1 2937.79v-2.09l79.57 75.29h-2.206Zm-71.116 0L-1 3005.07v-2.08l8.455 8H5.247Zm35.557 0L-1 2971.43v-2.09l44.013 41.65H40.8Zm245.538-165.32-73.438 69.48-.931-1.21 74.369-70.36 74.369 70.36-.933 1.21Zm-14.274 145.98 14.274-13.5 14.273 13.5-.932 1.21-13.341-12.63L273 2992.86Zm14.274-78.7L242.952 2954l-.932-1.2 44.323-41.94 44.322 41.94-.933 1.2Zm-29.3 59.27 29.3-27.72 29.3 27.72-.932 1.21-28.366-26.84-28.367 26.84Zm29.3-160.19-88.462 83.69-.931-1.21 89.393-84.57 89.393 84.57-.933 1.21Zm96.237 43.76-13.332 12.61-.93-1.21 14.262-13.49 14.262 13.49-.932 1.21Zm-44.311-27.45 44.284-41.9.073.07.026-.03 44.237 41.86-.932 1.2-43.377-41.04-43.38 41.04Zm44.311-6.2-28.355 26.83-.931-1.21 29.26-27.68.072.07.025-.03 29.215 27.64-.933 1.21Zm43.172 188.85-43.172-40.85-43.174 40.85H337.2l45.38-42.94 45.379 42.94h-2.206Zm-35.557 0-7.615-7.21-7.615 7.21h-2.207l9.822-9.3 9.822 9.3H390.2Zm71.115 0-78.73-74.49-78.732 74.49h-2.208l80.94-76.58 80.938 76.58h-2.208Zm17.5-165.32-73.437 69.48-.932-1.21 74.369-70.36 74.371 70.36-.935 1.21Zm0 134.56-13.342 12.63-.932-1.21 14.274-13.5 14.275 13.5-.932 1.21Zm0-67.28L435.425 2954l-.932-1.2 44.322-41.94 44.323 41.94-.932 1.2Zm-29.3 59.27 29.3-27.72 29.3 27.72-.929 1.21-28.368-26.84-28.365 26.84Zm-60.1-77.71 89.393-84.57 89.394 84.57-.932 1.21-88.462-83.69-88.46 83.69Zm171.368-27.32 14.264-13.49 14.261 13.49-.932 1.21-13.329-12.61-13.332 12.61Zm-30.048-38.85 44.312-41.93 44.308 41.93-.931 1.2-43.377-41.04-43.38 41.04Zm44.312-6.2-28.342 26.83-.932-1.21 29.287-27.7 29.286 27.7-.935 1.21Zm43.172 188.85-43.172-40.85-43.176 40.85h-2.205l45.381-42.94 45.378 42.94h-2.206Zm-35.557 0-7.615-7.21-7.615 7.21h-2.208l9.823-9.3 9.82 9.3h-2.205Zm71.115 0-78.73-74.49-78.733 74.49h-2.208l80.941-76.58 80.938 76.58h-2.208Zm17.5-165.32-73.436 69.48-.932-1.21 74.368-70.36 74.371 70.36-.934 1.21Zm0 134.56-13.342 12.63-.932-1.21 14.274-13.5 14.274 13.5-.931 1.21Zm-44.322-27.43 44.322-41.94 44.323 41.94-.932 1.2-43.391-41.05L627.9 2954Zm15.025 19.42 29.3-27.72 29.3 27.72-.931 1.21-28.366-26.84-28.365 26.84Zm29.3-160.19-88.461 83.69-.932-1.21 89.393-84.57 89.394 84.57-.932 1.21Zm81.975 55.16 14.264-13.49 14.26 13.49-.931 1.21-13.329-12.61-13.314 12.61Zm-30.048-38.85 44.309-41.93 44.311 41.93-.931 1.2-43.377-41.04-43.38 41.04Zm44.312-6.2-28.355 26.83-.932-1.21 29.287-27.7 29.283 27.7-.932 1.21Zm43.186 188.85-43.172-40.85-43.176 40.85h-2.2l45.378-42.94 45.38 42.94h-2.2Zm-35.56 0-7.612-7.21-7.615 7.21h-2.208l9.82-9.3 9.823 9.3h-2.208Zm71.118 0-78.73-74.49-78.728 74.49h-2.208l80.938-76.58 80.941 76.58h-2.208Zm17.5-165.32-73.439 69.48-.931-1.21 74.37-70.36 74.371 70.36-.935 1.21Zm0 134.56-13.342 12.63-.932-1.21 14.274-13.5 14.274 13.5-.931 1.21Zm0-67.28L820.372 2954l-.931-1.2 44.322-41.94 44.323 41.94-.932 1.2Zm-29.3 59.27 29.3-27.72 29.3 27.72-.932 1.21-28.365-26.84-28.361 26.84Zm29.3-160.19-88.458 83.69-.931-1.21 89.393-84.57 89.394 84.57-.932 1.21Zm81.975 55.16L960 2853.7l14.261 13.49-.932 1.21L960 2855.79l-13.33 12.61Zm-30.048-38.85L960 2786.41l44.311 41.93-.93 1.2L960 2788.5l-43.377 41.04Zm44.309-6.2-28.355 26.83-.929-1.21 29.29-27.7 29.284 27.7-.932 1.21Zm43.171 188.85L960 2970.14l-43.173 40.85h-2.208L960 2968.05l45.381 42.94h-2.21Zm-35.556 0-7.609-7.21-7.615 7.21h-2.208l9.823-9.3 9.821 9.3h-2.208Zm71.116 0L960 2936.5l-78.73 74.49h-2.208L960 2934.41l80.941 76.58h-2.21Zm-56.864-97.05 74.374-70.36 74.36 70.36-.93 1.21-73.43-69.48-73.435 69.48Zm74.374 66.29-13.35 12.63-.93-1.21 14.28-13.5 14.27 13.5-.93 1.21Zm-44.33-27.43 44.33-41.94 44.32 41.94-.93 1.2-43.39-41.05-43.385 41.05Zm15.03 19.42 29.3-27.72 29.29 27.72-.93 1.21-28.36-26.84-28.37 26.84Zm29.3-160.19-88.465 83.69-.932-1.21 89.4-84.57 89.39 84.57-.93 1.21Zm81.97 55.16 14.27-13.49 14.26 13.49-.94 1.21-13.33-12.61-13.33 12.61Zm14.26-78.69-43.37 41.04-.94-1.2 44.31-41.93 44.31 41.93-.93 1.2Zm0 33.64-28.35 26.83-.93-1.21 29.28-27.7 29.29 27.7-.93 1.21Zm43.18 188.85-43.18-40.85-43.17 40.85h-2.21l45.38-42.94 45.38 42.94h-2.2Zm-35.56 0-7.62-7.21-7.61 7.21h-2.21l9.82-9.3 9.83 9.3h-2.21Zm71.12 0-78.74-74.49-78.73 74.49h-2.21l80.94-76.58 80.94 76.58h-2.2Zm-56.87-97.05 74.37-70.36 74.37 70.36-.93 1.21-73.44-69.48-73.44 69.48Zm60.1 77.71 14.27-13.5 14.27 13.5-.93 1.21-13.34-12.63-13.34 12.63Zm14.27-78.7L1205.32 2954l-.93-1.2 44.32-41.94 44.32 41.94-.93 1.2Zm-29.3 59.27 29.3-27.72 29.3 27.72-.93 1.21-28.37-26.84-28.37 26.84Zm29.3-160.19-88.46 83.69-.93-1.21 89.39-84.57 89.39 84.57-.93 1.21Zm81.98 55.16 14.23-13.47.02.02.02-.03 14.25 13.48-.93 1.21-13.33-12.61-13.33 12.61Zm14.26-78.69-43.38 41.04-.93-1.2 44.22-41.85.08.09.08-.1 44.24 41.86-.94 1.2Zm0 33.64-28.36 26.83-.93-1.21 29.2-27.63.08.09.08-.09 29.21 27.63-.93 1.21Zm43.17 188.85-43.17-40.85-43.18 40.85h-2.2l45.35-42.92.02.02.02-.03 45.37 42.93h-2.21Zm-35.56 0-7.61-7.21-7.62 7.21h-2.2l9.79-9.27.02.01.02-.02 9.81 9.28h-2.21Zm71.12 0-78.73-74.49-78.73 74.49h-2.21l80.91-76.56.02.02.02-.03 80.92 76.57h-2.2Zm17.5-165.32-73.43 69.48-.94-1.21 74.37-70.36 74.37 70.36-.93 1.21Zm0 134.56-13.34 12.63-.93-1.21 14.27-13.5 14.28 13.5-.94 1.21Zm0-67.28L1397.79 2954l-.93-1.2 44.32-41.94 44.32 41.94-.93 1.2Zm0 33.64-28.36 26.84-.93-1.21 29.29-27.72 29.3 27.72-.93 1.21Zm0-134.56-88.46 83.69-.93-1.21 89.39-84.57 89.4 84.57-.94 1.21Zm96.24 43.76-13.33 12.61-.93-1.21 14.24-13.47.01.02.02-.03 14.25 13.48-.93 1.21Zm0-67.29-43.38 41.04-.93-1.2 44.23-41.85.07.09.08-.1 44.24 41.86-.93 1.2Zm0 33.64-28.35 26.83-.94-1.21 29.21-27.63.07.09.08-.09 29.22 27.63-.94 1.21Zm43.17 188.85-43.17-40.85-43.17 40.85h-2.21l45.36-42.92.01.02.02-.03 45.37 42.93h-2.21Zm-35.55 0-7.62-7.21-7.61 7.21h-2.21l9.8-9.27.01.01.02-.02 9.81 9.28h-2.2Zm71.11 0-78.73-74.49-78.73 74.49h-2.21l80.92-76.56.01.02.02-.03 80.93 76.57h-2.21Zm17.51-730.45-36.57 34.6.74-.96-1.66-1.58 1.8 1.39 5.2-6.71 30.49-28.82 30.63 28.98 4.26 5.53 48.61-45.99h2.21l-49.89 47.2.75.96Zm-85.71-13.56h2.2l46.6 44.09-.93 1.2Zm85.71 80.85-73.44 69.48-.93-1.21 74.37-70.36 74.37 70.36-.94 1.21Zm0 134.56-13.35 12.63-.93-1.21 14.28-13.5 14.27 13.5-.93 1.21Zm0-67.28-43.39 41.05-.93-1.2 44.32-41.94 44.32 41.94-.93 1.2Zm0 33.64-28.37 26.84-.93-1.21 29.3-27.72 29.3 27.72-.94 1.21Zm0-134.56-88.47 83.69-.93-1.21 89.4-84.57 89.39 84.57-.93 1.21Zm21.87-22.55 26.08-24.66h2.2l-27.34 25.87Zm-15.02-19.43 5.54-5.23h2.2l-6.81 6.44Zm60.1 77.71 29.2-27.63.07.09.09-.1 29.21 27.64-.93 1.21-28.36-26.83-28.35 26.83Zm-45.08 190.64 74.34-70.33.01.02.03-.02 74.34 70.33-.93 1.21-73.43-69.47-73.42 69.47Zm-15.02-19.43 89.36-84.54.01.02.03-.03 89.36 84.55-.92 1.21-88.46-83.68-88.45 83.68Zm-103.09-163.18-13.33 12.61-.93-1.21 14.24-13.47.01.02.02-.03 14.25 13.48-.93 1.21Zm0-67.29-43.38 41.04-.93-1.2 44.23-41.85.07.09.08-.1 44.24 41.86-.93 1.2Zm81.64-23.68h2.21l5.53 5.23-.93 1.21Zm-35.56 0h2.21l26.07 24.66-.93 1.21Zm206.81 47.2-1.68-1.59 1.82 1.4 5.19-6.71 30.49-28.82 30.63 28.98 4.26 5.53 48.62-45.99h2.2l-49.89 47.2.75.96-36.57-34.6-36.58 34.61Zm-49.89-47.2h2.21l46.6 44.09-.94 1.2Zm85.71 80.85-73.44 69.48-.93-1.21 74.37-70.36 74.37 70.36-.93 1.21Zm0 134.56-13.34 12.63-.93-1.21 14.27-13.5 14.27 13.5-.93 1.21Zm0-67.28-43.39 41.05-.93-1.2 44.32-41.94 44.32 41.94-.93 1.2Zm-29.3 59.27 29.3-27.72 29.3 27.72-.93 1.21-28.37-26.84-28.37 26.84Zm29.3-160.19-88.46 83.69-.93-1.21 89.39-84.57 89.39 84.57-.93 1.21Zm81.97 55.16 12.9-12.2v2.09l-11.96 11.32Zm-60.09-77.71 26.07-24.66h2.2l-27.34 25.87Zm-15.02-19.43 5.53-5.23h2.21l-6.81 6.44Zm45.07 58.29 42.94-40.63v2.09l-42.01 39.74Zm15.02 19.42 27.92-26.41v2.09l-26.99 25.53Zm-391.47 88.72-60.43-57.17-60.42 57.17.75.96-36.56-34.58-36.57 34.59.76-.97-60.43-57.17-60.43 57.17.75.96-36.56-34.58-36.56 34.59.75-.97-60.42-57.17-60.428 57.17.754.97L960 2405.02l-36.568 34.59.757-.97-60.425-57.17-60.425 57.17.754.97-36.564-34.59-36.573 34.6.759-.98-60.425-57.17-60.425 57.17.751.97-36.561-34.59-36.57 34.59.756-.97-60.425-57.17-60.424 57.17.753.97-36.564-34.59-36.566 34.59.754-.97-60.425-57.17-60.426 57.17.749.97-36.56-34.59-36.566 34.59.754-.97-60.425-57.17-60.424 57.17.751.97L-1 2406.31v-2.09l29.254 27.68 1.5 1.96 2.763 3.57 61.356-58.05 59.347 56.15-.742.96 2.183 1.68 4.971-6.43 30.478-28.81 30.622 28.97 1.494 1.96 2.764 3.57 61.357-58.05 61.355 58.05 1.674-2.16 2.729-3.53 30.478-28.81 30.617 28.97 4.259 5.53 61.356-58.05 59.345 56.15-.772 1 2.183 1.68 5-6.47 30.476-28.81 30.624 28.97 1.492 1.96 2.766 3.57 61.356-58.05 61.357 58.05 4.338-5.61 30.541-28.89 30.624 28.97 1.5 1.96 2.763 3.57 61.356-58.05 61.357 58.05 2.733-3.53 1.667-2.16L960 2402.93l30.624 28.97 1.5 1.96 2.762 3.57 61.36-58.05 61.35 58.05 2.74-3.53 1.66-2.16 30.48-28.81 30.63 28.97 1.49 1.96 2.76 3.57 61.36-58.05 61.35 58.05 4.41-5.69 30.45-28.79.02.02.02-.03 30.61 28.96 4.26 5.53 61.35-58.05 61.36 58.05.95-1.22 3.45-4.47 30.46-28.79.01.02.02-.03 30.61 28.96 4.26 5.53 61.36-58.05 59.34 56.15-.93 1.2-58.41-55.26-60.43 57.17.75.96-36.56-34.58-36.57 34.6Zm194.3-2.37 3.51-4.53 30.45-28.79.01.02.03-.03 30.61 28.96 4.25 5.53 61.36-58.05 59.34 56.15-.93 1.2-58.41-55.26-60.43 57.17.76.97-36.57-34.59-36.57 34.59Zm195.98-4.53 29.11-27.52v2.09l-35.19 33.3Zm-176.26-62.39 14.24-13.47.01.02.03-.03 14.24 13.48-.93 1.21-13.33-12.61-13.33 12.61Zm-30.05-38.86 44.23-41.84.07.09.09-.1 44.23 41.86-.93 1.2-43.38-41.04-43.37 41.04Zm125.96-63.51h2.2l5.53 5.23-.92 1.21Zm-35.57 0h2.21l26.07 24.66-.93 1.21Zm-142.31 329.77-73.44 69.48-.93-1.21 74.37-70.36 74.37 70.36-.94 1.21Zm0 134.56-13.35 12.63-.93-1.21 14.28-13.5 14.27 13.5-.93 1.21Zm0-67.28-43.39 41.05-.93-1.2 44.32-41.94 44.32 41.94-.93 1.2Zm0 33.64-28.37 26.84-.93-1.21 29.3-27.72 29.3 27.72-.94 1.21Zm0-134.56-88.47 83.69-.93-1.21 89.4-84.57 89.39 84.57-.93 1.21Zm81.97 55.16 14.24-13.47.01.02.03-.03 14.24 13.48-.93 1.21-13.33-12.61-13.33 12.61Zm14.26-78.69-43.37 41.04-.94-1.21 44.29-41.89.01.01.03-.02 44.29 41.91-.93 1.2Zm-29.28 59.26 29.26-27.68.01.01.03-.02 29.27 27.69-.93 1.21-28.36-26.83-28.35 26.83Zm-45.08 190.64 74.34-70.33.01.02.03-.02 74.34 70.33-.93 1.21-73.43-69.47-73.42 69.47Zm-15.02-19.43 89.36-84.54.01.02.03-.03 89.36 84.55-.92 1.21-88.46-83.68-88.45 83.68ZM1212.89 2563.1l-60.42-57.16-60.41 57.16.75.96-36.57-34.6-36.58 34.61.75-.97-1.67-1.59 1.82 1.4 5.18-6.71 30.5-28.82 30.63 28.98 4.26 5.53 61.34-58.04 61.35 58.04 4.4-5.69 30.49-28.82 30.63 28.98 4.26 5.53 61.32-58.01.02.01.02-.02 61.33 58.02 4.4-5.69 30.49-28.82 30.64 28.98 4.25 5.53 61.33-58.01.01.01.02-.02 59.32 56.12-.93 1.2-58.4-55.25-60.41 57.16.74.96-36.57-34.6-36.57 34.6.75-.96-60.41-57.16-60.42 57.16.74.95-36.56-34.59-36.57 34.61Zm577.42 0-1.68-1.59 1.82 1.4 5.19-6.71 30.49-28.82 30.63 28.98 4.26 5.53 59.98-56.75v2.09l-59.05 55.87.75.96-36.57-34.6-36.58 34.61Zm-1347.319 0-1.675-1.59 1.818 1.4 5.192-6.71 30.489-28.82 30.633 28.98 4.26 5.53 61.346-58.04 59.331 56.14-.931 1.2-58.4-55.25-60.415 57.16.749.96-36.573-34.6-36.575 34.61Zm384.948 0-1.675-1.59 1.818 1.4 5.189-6.71 30.492-28.82 30.633 28.98 4.26 5.53L960 2503.85l59.331 56.14-.93 1.2L960 2505.94l-60.414 57.16.749.96-36.573-34.6-36.575 34.61Zm-192.474 0-1.675-1.59 1.818 1.4 5.189-6.71 30.492-28.82 30.633 28.98 4.26 5.53 61.343-58.04 59.334 56.14-.931 1.2-58.4-55.25-60.415 57.16.749.96-36.573-34.6-36.575 34.61Zm-384.946 0-60.413-57.16-60.414 57.16.744.96-36.567-34.6-36.569 34.6.749-.96-1.67-1.58 1.813 1.39 5.19-6.71 30.49-28.82 30.631 28.98 4.26 5.53 61.346-58.04 61.344 58.04 4.4-5.69 30.49-28.82 30.631 28.98 4.26 5.53 61.346-58.04 59.331 56.14-.931 1.2-58.4-55.25-60.414 57.16.744.96-36.567-34.6-36.574 34.61Zm1383.141-33.64-36.57 34.6.74-.96-1.66-1.58 1.8 1.39 5.2-6.71 30.49-28.82 30.63 28.98 4.26 5.53 61.32-58.01.01.01.03-.02 59.32 56.12-.94 1.2-58.4-55.25-60.41 57.16.75.96ZM-1 2507.23v-2.09l57.965 54.85-.93 1.2Zm1827.13 89.52-73.44 69.48-.93-1.21 74.37-70.36 74.37 70.36-.93 1.21Zm0 134.56-13.34 12.63-.93-1.21 14.27-13.5 14.27 13.5-.93 1.21Zm0-67.28-43.39 41.05-.93-1.2 44.32-41.94 44.32 41.94-.93 1.2Zm-29.3 59.27 29.3-27.72 29.3 27.72-.93 1.21-28.37-26.84-28.37 26.84Zm29.3-160.19-88.46 83.69-.93-1.21 89.39-84.57 89.39 84.57-.93 1.21Zm81.97 55.16 12.9-12.2v2.09l-11.96 11.32Zm-60.09-77.71 72.99-69.06v2.09l-72.06 68.18Zm-15.02-19.43 88.01-83.27v2.09l-87.08 82.39Zm45.07 58.29 42.94-40.63v2.09l-42.01 39.74Zm15.02 19.42 27.92-26.41v2.09l-26.99 25.53ZM960 2653.94l-36.56 34.59 3.988-5.16 2.093-2.71L960 2651.85l30.624 28.97 1.5 1.96 2.762 3.57 61.36-58.05 59.34 56.15-.93 1.2-58.41-55.26-60.428 57.17.751.97Zm-223.018 26.8 30.544-28.89 30.624 28.97 1.5 1.96 2.763 3.57 61.356-58.05 59.345 56.15-.932 1.2-58.413-55.26-60.425 57.17.752.97-36.562-34.59-36.565 34.59Zm-192.406-.08 30.476-28.81 30.624 28.97 1.492 1.96 2.766 3.57 61.356-58.05 59.345 56.15-.931 1.2-58.414-55.26-60.425 57.17.751.97-36.561-34.59-36.565 34.59Zm1185.315-26.72-36.55 34.58 6.08-7.86 30.45-28.79.01.02.03-.03 30.61 28.96 4.25 5.53 61.36-58.05 59.34 56.15-.93 1.2-58.41-55.26-60.43 57.17.76.97Zm-1347.31 0-36.559 34.58 6.08-7.86 30.478-28.81 30.621 28.97 4.259 5.53 61.356-58.05 59.345 56.15-.931 1.2-58.414-55.26-60.424 57.17.751.97ZM-1 2655.23v-2.09l29.254 27.68 1.5 1.96 2.763 3.57 61.356-58.05 59.347 56.15-.932 1.2-58.415-55.26-60.425 57.17.75.97Zm191.106-1.29-36.554 34.58 6.076-7.86 30.478-28.81 30.622 28.97 1.494 1.96 2.764 3.57 61.357-58.05 59.345 56.15-.932 1.2-58.413-55.26-60.426 57.17.748.96Zm1154.844 0-36.56 34.58 6.08-7.86 30.45-28.79.02.02.02-.03 30.61 28.96 4.26 5.53 61.35-58.05 59.35 56.15-.93 1.2-58.42-55.26-60.42 57.17.74.96Zm-192.48 0-36.55 34.58 3.98-5.15 2.09-2.71 30.48-28.81 30.63 28.97 1.49 1.96 2.76 3.57 61.36-58.05 59.35 56.15-.94 1.2-58.41-55.26-60.43 57.17.75.96Zm384.95 0-36.55 34.58 6.07-7.86 30.46-28.79.01.02.02-.03 30.61 28.96 4.26 5.53 61.36-58.05 59.34 56.15-.93 1.2-58.41-55.26-60.43 57.17.75.96Zm354.47 26.72 29.11-27.52v2.09l-35.19 33.29Zm-258.23 165.01-73.44 69.48-.93-1.21 74.37-70.36 74.37 70.36-.94 1.21Zm0 134.56-13.35 12.63-.93-1.21 14.28-13.5 14.27 13.5-.93 1.21Zm0-67.28-43.39 41.05-.93-1.2 44.32-41.94 44.32 41.94-.93 1.2Zm0 33.64-28.37 26.84-.93-1.21 29.3-27.72 29.3 27.72-.94 1.21Zm0-134.56-88.47 83.69-.93-1.21 89.4-84.57 89.39 84.57-.93 1.21Zm81.97 55.16 14.24-13.47.01.02.03-.03 14.24 13.48-.93 1.21-13.33-12.61-13.33 12.61Zm-30.05-38.86 44.23-41.84.07.09.09-.1 44.23 41.86-.93 1.2-43.38-41.04-43.37 41.04Zm15.03 19.43 29.2-27.63.07.09.09-.09 29.21 27.63-.93 1.21-28.36-26.83-28.35 26.83Zm72.46 163.23-43.18-40.85-43.17 40.85h-2.21l45.36-42.92.01.02.03-.02 45.36 42.92h-2.2Zm-35.56 0-7.62-7.21-7.61 7.21h-2.21l9.8-9.27.01.01.03-.02 9.8 9.28h-2.2Zm71.11 0-78.73-74.49-78.73 74.49h-2.2l80.91-76.56.01.02.03-.03 80.92 76.57h-2.21Zm-595.73-198.97-60.42-57.16-60.41 57.16.75.96-36.57-34.6-36.58 34.61.75-.97-1.67-1.59 1.82 1.4 5.18-6.71 30.5-28.82 30.63 28.98 4.26 5.53 61.34-58.04 61.35 58.04 4.4-5.69 30.49-28.82 30.63 28.98 4.26 5.53 61.32-58.01.02.01.02-.02 61.33 58.02 4.4-5.69 30.49-28.82 30.64 28.98 4.25 5.53 61.33-58.01.01.01.02-.02 59.32 56.12-.93 1.2-58.4-55.25-60.41 57.16.74.96-36.57-34.6-36.56 34.6.74-.96-60.41-57.16-60.42 57.16.74.95-36.56-34.59-36.57 34.61Zm577.42 0-1.68-1.59 1.82 1.4 5.19-6.71 30.49-28.82 30.63 28.98 4.26 5.53 59.98-56.74v2.08l-59.05 55.87.75.96-36.57-34.6-36.58 34.61Zm-1347.319 0-1.672-1.59 1.815 1.4 5.192-6.71 30.489-28.82 30.633 28.98 4.26 5.53 61.346-58.04 59.331 56.14-.931 1.2-58.4-55.25-60.415 57.16.749.96-36.573-34.6-36.575 34.61Zm384.948 0-1.672-1.59 1.815 1.4 5.189-6.71 30.492-28.82 30.633 28.98 4.26 5.53L960 2752.77l59.331 56.14-.93 1.2L960 2754.86l-60.414 57.16.749.96-36.573-34.6-36.575 34.61Zm-192.474 0-1.672-1.59 1.815 1.4 5.189-6.71 30.492-28.82 30.633 28.98 4.26 5.53 61.343-58.04 59.334 56.14-.931 1.2-58.4-55.25-60.415 57.16.749.96-36.573-34.6-36.575 34.61Zm-384.946 0-1.67-1.58 1.813 1.39 5.191-6.71 30.49-28.82 30.631 28.98 4.26 5.53 61.346-58.04 59.331 56.14-.931 1.2-58.4-55.25-60.414 57.16.743.96-36.566-34.6-36.573 34.61Zm1383.141-33.64-36.57 34.6.74-.96-1.66-1.58 1.8 1.39 5.2-6.71 30.49-28.82 30.63 28.98 4.26 5.53 61.32-58.01.01.01.03-.02 59.32 56.12-.94 1.2-58.4-55.25-60.41 57.16.75.96ZM58.046 2812.02l-1.667-1.58 1.81 1.39 5.19-6.71 30.49-28.82 30.631 28.98 4.26 5.53 61.346-58.04 59.333 56.14-.932 1.2-58.4-55.25-60.414 57.16.744.96-36.567-34.6-36.57 34.6ZM-1 2756.15v-2.08l57.966 54.84-.932 1.2Zm1827.13 89.52-73.44 69.48-.93-1.21 74.37-70.36 74.37 70.36-.93 1.21Zm0 134.56-13.34 12.63-.93-1.21 14.27-13.5 14.27 13.5-.93 1.21Zm0-67.28-43.39 41.05-.93-1.2 44.32-41.94 44.32 41.94-.93 1.2Zm-29.3 59.27 29.3-27.72 29.3 27.72-.93 1.21-28.37-26.84-28.37 26.84Zm29.3-160.19-88.46 83.69-.93-1.21 89.39-84.57 89.39 84.57-.93 1.21Zm81.97 55.16 12.9-12.2v2.09l-11.96 11.32Zm-60.09-77.71 72.99-69.06v2.09l-72.06 68.18Zm-15.02-19.43 88.01-83.27v2.09l-87.08 82.39Zm45.07 58.29 42.94-40.63v2.09l-42.01 39.74Zm15.02 19.42 27.92-26.41v2.09l-26.99 25.53Zm-391.47 88.72-60.43-57.17-60.42 57.17.75.96-36.56-34.58-36.57 34.59.76-.97-60.43-57.17-60.43 57.17.75.96-36.56-34.58-36.56 34.59.75-.97-60.42-57.17-60.428 57.17.754.97L960 2902.86l-36.568 34.59.757-.97-60.425-57.17-60.425 57.17.754.97-36.564-34.59-36.573 34.6.759-.98-60.425-57.17-60.425 57.17.751.97-36.561-34.59-36.57 34.59.756-.97-60.425-57.17-60.424 57.17.753.97-36.564-34.59-36.566 34.59.754-.97-60.425-57.17-60.426 57.17.749.97-36.56-34.59-36.566 34.59.754-.97-60.425-57.17-60.424 57.17.751.97L-1 2904.15v-2.09l29.254 27.68 1.5 1.96 2.763 3.57 61.356-58.05 59.347 56.15-.742.96 2.183 1.68 4.971-6.43 30.478-28.81 30.622 28.97 1.494 1.96 2.764 3.57 61.357-58.05 61.355 58.05 1.674-2.16 2.729-3.53 30.478-28.81 30.621 28.97 4.259 5.53 61.356-58.05 59.345 56.15-.772 1 2.183 1.68 5-6.47 30.476-28.81 30.624 28.97 1.492 1.96 2.766 3.57 61.356-58.05 61.357 58.05 4.338-5.61 30.541-28.89 30.624 28.97 1.5 1.96 2.763 3.57 61.356-58.05 61.357 58.05 2.733-3.53 1.667-2.16L960 2900.77l30.624 28.97 1.5 1.96 2.762 3.57 61.36-58.05 61.35 58.05 2.74-3.53 1.66-2.16 30.48-28.81 30.63 28.97 1.49 1.96 2.76 3.57 61.36-58.05 61.35 58.05 4.41-5.69 30.45-28.79.02.02.02-.03 30.61 28.96 4.26 5.53 61.35-58.05 61.36 58.05.95-1.22 3.45-4.47 30.46-28.79.01.02.02-.03 30.61 28.96 4.26 5.53 61.36-58.05 59.34 56.15-.93 1.21-58.41-55.27-60.43 57.17.75.96-36.56-34.58-36.57 34.6Zm194.3-2.37 3.51-4.53 30.45-28.79.01.02.03-.03 30.61 28.96 4.25 5.53 61.36-58.05 59.34 56.15-.93 1.2-58.41-55.26-60.43 57.17.76.97-36.57-34.59-36.57 34.59Zm195.98-4.53 29.11-27.52v2.09l-35.19 33.3Zm-14.9 81.41 44.01-41.65v2.09l-41.81 39.56h-2.2Zm35.55 0 8.46-8v2.08l-6.25 5.92h-2.21Zm-71.11 0 79.57-75.29v2.09l-77.36 73.2h-2.21Z" transform="translate(0 -2266.97)" style="fill:#ededed;fill-rule:evenodd"/></svg><svg viewBox="0 0 20 19.97" id="phone-icon" xmlns="http://www.w3.org/2000/svg"><path d="m414.477 1551.76-2.485-2.49a1.807 1.807 0 0 0-2.485 0l-.414.42 4.969 4.97.415-.41a1.763 1.763 0 0 0 0-2.49Zm-7.982-1.35-4.912-4.92a1.323 1.323 0 0 1-.09-1.75l-4.958-4.97a6.341 6.341 0 0 0 .3 8.6l7.774 7.78a6.291 6.291 0 0 0 8.587.31l-4.958-4.96a1.334 1.334 0 0 1-1.738-.09Zm-3.782-7.94a1.764 1.764 0 0 0 0-2.49l-2.485-2.48a1.787 1.787 0 0 0-2.485 0l-.414.41 4.969 4.98Z" transform="translate(-395 -1537.03)" style="fill:#fe3e57;fill-rule:evenodd"/></svg><svg data-name="play btn" viewBox="0 0 130 130" id="play-btn" xmlns="http://www.w3.org/2000/svg"><circle data-name="Ellipse 7 copy 2" cx="65" cy="65" r="65" style="opacity:.2;fill:#fe3e57"/><circle data-name="Ellipse 7 copy" cx="65" cy="65" r="55" style="opacity:.6;fill:#fe3e57"/><circle cx="65" cy="65" r="45" style="fill:#fe3e57"/><path d="m649.816 2630.14-11.824-7.6a2.934 2.934 0 0 0-1.554-.54 1.507 1.507 0 0 0-1.431 1.78v16.44a1.507 1.507 0 0 0 1.429 1.78 3 3 0 0 0 1.546-.54l11.83-7.6a2.056 2.056 0 0 0 0-3.72" transform="translate(-578 -2567)" style="fill:#fff;fill-rule:evenodd"/></svg><svg viewBox="0 0 15 13" id="reply" xmlns="http://www.w3.org/2000/svg"><path d="M480.835 1670.67v-3.47l-5.835 6.07 5.834 6.07v-3.56c4.167 0 7.084 1.39 9.167 4.42-.832-4.33-3.333-8.66-9.166-9.53Z" transform="translate(-475 -1667.19)" style="fill:#8d8d8d;fill-rule:evenodd"/></svg><svg viewBox="0 0 20.03 20" id="search" xmlns="http://www.w3.org/2000/svg"><path d="m1439.89 63.7-5.81-5.81a7.944 7.944 0 1 0-1.18 1.178l5.81 5.81a.417.417 0 0 0 .59 0l.59-.589a.421.421 0 0 0 0-.589Zm-11.96-4.533a6.25 6.25 0 1 1 6.25-6.25 6.254 6.254 0 0 1-6.25 6.246Z" transform="translate(-1420 -45)" style="fill:#29282d;fill-rule:evenodd"/></svg><svg viewBox="0 0 20.03 20" id="search-white" xmlns="http://www.w3.org/2000/svg"><path style="fill:#fff" d="m1439.89 63.7-5.81-5.81a7.944 7.944 0 1 0-1.18 1.178l5.81 5.81a.417.417 0 0 0 .59 0l.59-.589a.421.421 0 0 0 0-.589Zm-11.96-4.533a6.25 6.25 0 1 1 6.25-6.25 6.254 6.254 0 0 1-6.25 6.246Z" transform="translate(-1420 -45)"/></svg><svg viewBox="0 0 18 16" id="star" xmlns="http://www.w3.org/2000/svg"><path d="m8.102.555-2.04 4.14-4.566.664C.68 5.477.352 6.49.946 7.066l3.3 3.22-.781 4.546c-.14.82.726 1.438 1.45 1.05L9 13.739l4.086 2.145c.723.383 1.59-.23 1.45-1.051l-.782-4.547 3.3-3.219c.594-.578.266-1.59-.55-1.707l-4.567-.664L9.899.555c-.367-.735-1.425-.746-1.796 0Zm0 0" style="stroke:none;fill-rule:nonzero;fill-opacity:1"/></svg><svg viewBox="0 0 20 20" id="time" xmlns="http://www.w3.org/2000/svg"><path d="M1365.9 6011.26a.828.828 0 0 0-.39 1.11 8.243 8.243 0 0 1 .82 3.63 8.33 8.33 0 1 1-8.33-8.33 8.26 8.26 0 0 1 5.17 1.79.832.832 0 0 0 1.04-1.3 10 10 0 1 0 3.79 7.84 9.866 9.866 0 0 0-.99-4.35.828.828 0 0 0-1.11-.39Zm0 0-7.9-1.93a.837.837 0 0 0-.83.84v5.83a.828.828 0 0 0 .83.83h4.17a.83.83 0 0 0 0-1.66h-3.34v-5a.837.837 0 0 0-.83-.84Zm0 0" transform="translate(-1348 -6006)" style="fill:#8d8d8d;fill-rule:evenodd"/></svg><svg viewBox="0 0 20 20" id="user" xmlns="http://www.w3.org/2000/svg"><path fill="#29282d" fill-rule="evenodd" d="M17.07 12.928a9.923 9.923 0 0 0-3.8-2.383 5.78 5.78 0 1 0-6.54 0A10.018 10.018 0 0 0 0 20h1.56a8.44 8.44 0 0 1 16.88 0H20a9.931 9.931 0 0 0-2.93-7.072ZM5.78 5.78A4.22 4.22 0 1 1 10 10a4.222 4.222 0 0 1-4.22-4.22Z"/></svg><svg viewBox="0 0 16 16" id="user-blog" xmlns="http://www.w3.org/2000/svg"><path d="M751.657 1107.34a7.972 7.972 0 0 0-3.04-1.9 4.625 4.625 0 1 0-5.234 0A7.989 7.989 0 0 0 738 1113h1.25a6.75 6.75 0 0 1 13.5 0H754a7.948 7.948 0 0 0-2.343-5.66Zm-9.032-5.72A3.375 3.375 0 1 1 746 1105a3.375 3.375 0 0 1-3.375-3.38Z" transform="translate(-738 -1097)" style="fill:#fe3e57;fill-rule:evenodd"/></svg><svg viewBox="0 0 20 20" id="user-grey" xmlns="http://www.w3.org/2000/svg"><path d="M1232.07 6018.93a9.954 9.954 0 0 0-3.8-2.39 5.78 5.78 0 1 0-6.54 0 10.04 10.04 0 0 0-6.73 9.46h1.56a8.44 8.44 0 0 1 16.88 0h1.56a9.932 9.932 0 0 0-2.93-7.07Zm-11.29-7.15a4.22 4.22 0 1 1 4.22 4.22 4.221 4.221 0 0 1-4.22-4.22Z" transform="translate(-1215 -6006)" style="fill:#8d8d8d;fill-rule:evenodd"/></svg></svg>