<svg xmlns="http://www.w3.org/2000/svg" width="25" height="25"><path d="M11.797 18.188a.689.689 0 01-.469-.188c-.25-.25-.25-.656 0-.938l4.563-4.562-4.563-4.563c-.25-.25-.25-.656 0-.937.25-.25.656-.25.938 0l5.03 5.031a.636.636 0 01.188.469.636.636 0 01-.187.469L12.266 18a.689.689 0 01-.47.188zm-3.719 0A.689.689 0 017.61 18c-.25-.25-.25-.656 0-.938l4.563-4.562L7.61 7.937c-.25-.25-.25-.656 0-.937.25-.25.657-.25.938 0l5.031 5.031a.636.636 0 01.188.469.636.636 0 01-.188.469L8.547 18a.689.689 0 01-.469.188zm0 0" fill="#8d8d8d"/></svg>